<?xml version="1.0" standalone="no"?>
<!DOCTYPE svg PUBLIC "-//W3C//DTD SVG 1.1//EN" "http://www.w3.org/Graphics/SVG/1.1/DTD/svg11.dtd" >
<svg xmlns="http://www.w3.org/2000/svg" xmlns:xlink="http://www.w3.org/1999/xlink" version="1.1">
<metadata>
Created by FontForge 20161013 at Thu Sep 22 07:00:01 2005
 By ,,,
Copyright (c) Boutros International, 2005. All rights reserved.
</metadata>
<defs>
<font id="GEDinarOne-MediumItalic" horiz-adv-x="0" >
  <font-face 
    font-family="GE Dinar One"
    font-weight="500"
    font-style="italic"
    font-stretch="normal"
    units-per-em="1000"
    panose-1="2 10 5 3 2 1 2 2 2 4"
    ascent="800"
    descent="-200"
    bbox="-220 -375 1302 1036"
    underline-thickness="50"
    underline-position="-200"
    unicode-range="U+0020-FEFF"
  />
<missing-glyph horiz-adv-x="500" 
d="M63 0h375v750h-375v-750zM125 63v625h250v-625h-250z" />
    <glyph glyph-name="hamzaarabic" unicode="&#x621;" horiz-adv-x="564" arabic-form="isolated" 
d="M509 0l-22 85h-239l-10 42q-11 43 5 70.5t53 27.5q44 0 87 -41l48 63q-75 63 -146 63q-85 0 -120 -60q-33 -54 -12 -138l6 -27h-69l-50 -85h469z" />
    <glyph glyph-name="alefmaddaabovearabic" unicode="&#x622;" horiz-adv-x="181" arabic-form="isolated" 
d="M144 0l-160 645l-88 -30l153 -615h95zM84 727l-52 32q-23 -26 -44 -26q-18 0 -55 15q-38 16 -67 16q-40 0 -86 -42l52 -31q21 26 53 26q15 0 51 -16q36 -15 63 -15q39 0 85 41z" />
    <glyph glyph-name="alefhamzaabovearabic" unicode="&#x623;" horiz-adv-x="181" arabic-form="isolated" 
d="M144 0l-160 645l-88 -30l153 -615h95zM5 683l-7 34h-79l-5 20q-9 35 15 35q16 0 31 -15l15 28q-27 21 -51 21q-65 0 -47 -69l5 -20h-28l-13 -34h164z" />
    <glyph glyph-name="wawhamzaabovearabic" unicode="&#x624;" horiz-adv-x="475" arabic-form="isolated" 
d="M424 39q-3 11 -13 63q-8 39 -17 73q-28 115 -77 177q-67 82 -182 82q-105 0 -135 -71q-26 -61 -3 -153q22 -93 78 -152q67 -72 172 -72q51 0 89 24q17 -113 -90 -119q-74 -5 -168 35l65 -92q49 -26 123 -26q107 0 145 68q37 59 13 163zM291 210q36 -141 -65 -141
q-100 0 -136 141q-36 142 66 142q99 0 135 -142zM240 492l-13 52h-145l-6 25q-16 61 35 61q27 0 53 -26l29 39q-46 37 -87 37q-52 0 -73.5 -33.5t-8.5 -85.5l4 -17h-44l-29 -52h285z" />
    <glyph glyph-name="alefhamzabelowarabic" unicode="&#x625;" horiz-adv-x="181" arabic-form="isolated" 
d="M144 0l-160 645l-88 -30l153 -615h95zM214 -195l-9 35h-79l-4 19q-9 35 15 35q16 0 31 -15l15 28q-27 21 -52 21q-63 0 -45 -69l4 -19h-29l-12 -35h165z" />
    <glyph glyph-name="yehhamzaabovearabic" unicode="&#x626;" horiz-adv-x="646" arabic-form="isolated" 
d="M514 380q-83 71 -176 71q-87 0 -126 -48t-19 -129l35 -139h248l29 -118q16 -64 -32 -96q-38 -26 -108 -26q-104 0 -163 56q-58 53 -94 194l-88 -29q51 -153 124 -222q88 -86 242 -86q112 0 170 44q70 55 43 165l-50 201h-247l-12 49q-26 102 73 102q69 0 143 -81z
M165 192l-15 58h-163l-7 29q-17 68 40 68q30 0 59 -28l32 43q-50 41 -99 41q-57 0 -81.5 -38t-9.5 -96l5 -19h-50l-31 -58h320z" />
    <glyph glyph-name="alefarabic" unicode="&#x627;" horiz-adv-x="181" arabic-form="isolated" 
d="M144 0l-160 645l-88 -30l153 -615h95z" />
    <glyph glyph-name="beharabic" unicode="&#x628;" horiz-adv-x="809" arabic-form="isolated" 
d="M729 172l-70 279l-87 -25l61 -244q24 -98 -75 -98h-337q-100 0 -124 98l-47 187l-69 -96l25 -101q19 -77 80.5 -124.5t142.5 -47.5h355q87 0 126 46.5t19 125.5zM511 -141q-5 20 -24.5 35.5t-40.5 15.5t-32 -15.5t-6 -35.5q5 -21 24 -36.5t40 -15.5t32.5 15.5t6.5 36.5z
" />
    <glyph glyph-name="tehmarbutaarabic" unicode="&#x629;" horiz-adv-x="492" arabic-form="isolated" 
d="M222 592q-5 21 -24.5 36t-39.5 15q-21 0 -32.5 -15t-6.5 -36t24.5 -36.5t40.5 -15.5q20 0 31.5 15.5t6.5 36.5zM88 592q-5 21 -24.5 36t-41.5 15q-20 0 -31 -15t-6 -36t23.5 -36.5t39.5 -15.5q22 0 33.5 15.5t6.5 36.5zM397 229q-24 96 -80 155q-71 72 -179 72t-141 -72
q-29 -57 -5 -155q24 -97 81 -156q72 -73 179 -73q109 0 142 73q28 59 3 156zM304 229q38 -149 -72 -149q-108 0 -146 149q-36 147 72 147q110 0 146 -147z" />
    <glyph glyph-name="teharabic" unicode="&#x62a;" horiz-adv-x="809" arabic-form="isolated" 
d="M420 439q-5 21 -24.5 36.5t-40.5 15.5q-20 0 -31.5 -15.5t-6.5 -36.5t24 -36.5t40 -15.5t32.5 15t6.5 37zM286 439q-5 21 -24.5 36.5t-40.5 15.5t-32 -15.5t-6 -36.5q5 -22 24 -37t40 -15t32.5 15t6.5 37zM729 172l-70 279l-87 -25l61 -244q24 -98 -75 -98h-337
q-100 0 -124 98l-47 187l-69 -96l25 -101q19 -77 80.5 -124.5t142.5 -47.5h355q87 0 126 46.5t19 125.5z" />
    <glyph glyph-name="theharabic" unicode="&#x62b;" horiz-adv-x="809" arabic-form="isolated" 
d="M325 555q-5 21 -24.5 36t-40.5 15t-32.5 -15t-6.5 -36t24.5 -36.5t40.5 -15.5t32.5 15.5t6.5 36.5zM420 439q-5 21 -24.5 36.5t-40.5 15.5q-20 0 -31.5 -15.5t-6.5 -36.5t24 -36.5t40 -15.5t32.5 15t6.5 37zM286 439q-5 21 -24.5 36.5t-40.5 15.5t-32 -15.5t-6 -36.5
q5 -22 24 -37t40 -15t32.5 15t6.5 37zM729 172l-70 279l-87 -25l61 -244q24 -98 -75 -98h-337q-100 0 -124 98l-47 187l-69 -96l25 -101q19 -77 80.5 -124.5t142.5 -47.5h355q87 0 126 46.5t19 125.5z" />
    <glyph glyph-name="jeemarabic" unicode="&#x62c;" horiz-adv-x="569" arabic-form="isolated" 
d="M480 212q-44 117 -123 184q-85 70 -190 70q-63 0 -107 -23q-39 -22 -83 -73l76 -63q36 42 64 57q26 16 72 16q38 0 84 -26q40 -24 69 -59h-110q-115 0 -169 -70q-53 -71 -26 -177q26 -104 115 -171q92 -69 201 -69q88 0 146 38l-25 101q-32 -38 -68 -48q-26 -8 -73 -8
q-71 0 -127 44q-55 43 -72 113q-19 73 13 118.5t106 45.5h227zM353 53q-5 21 -24.5 36.5t-40.5 15.5t-32.5 -15.5t-6.5 -36.5q6 -22 25.5 -37.5t40.5 -15.5t32.5 15.5t5.5 37.5z" />
    <glyph glyph-name="haharabic" unicode="&#x62d;" horiz-adv-x="569" arabic-form="isolated" 
d="M480 212q-44 117 -123 184q-85 70 -190 70q-63 0 -107 -23q-39 -22 -83 -73l76 -63q36 42 64 57q26 16 72 16q38 0 84 -26q40 -24 69 -59h-110q-115 0 -169 -70q-53 -71 -26 -177q26 -104 115 -171q92 -69 201 -69q88 0 146 38l-25 101q-32 -38 -68 -48q-26 -8 -73 -8
q-71 0 -127 44q-55 43 -72 113q-19 73 13 118.5t106 45.5h227z" />
    <glyph glyph-name="khaharabic" unicode="&#x62e;" horiz-adv-x="569" arabic-form="isolated" 
d="M189 592q-5 21 -24.5 36t-40.5 15q-22 0 -33.5 -15t-6.5 -36t24.5 -36.5t41.5 -15.5q21 0 32.5 15.5t6.5 36.5zM480 212q-44 117 -123 184q-85 70 -190 70q-63 0 -107 -23q-39 -22 -83 -73l76 -63q36 42 64 57q26 16 72 16q38 0 84 -26q40 -24 69 -59h-110
q-115 0 -169 -70q-53 -71 -26 -177q26 -104 115 -171q92 -69 201 -69q88 0 146 38l-25 101q-32 -38 -68 -48q-26 -8 -73 -8q-71 0 -127 44q-55 43 -72 113q-19 73 13 118.5t106 45.5h227z" />
    <glyph glyph-name="dalarabic" unicode="&#x62f;" horiz-adv-x="483" arabic-form="isolated" 
d="M446 0l-70 279q-20 78 -86 124q-68 47 -155 47q-67 0 -120 -59l27 -108q27 87 113 87q103 0 129 -98l47 -190h-246l-36 -82h397z" />
    <glyph glyph-name="thalarabic" unicode="&#x630;" horiz-adv-x="483" arabic-form="isolated" 
d="M164 592q-5 22 -24 37.5t-40 15.5t-32.5 -15.5t-6.5 -37.5q5 -21 24.5 -36.5t40.5 -15.5t32 15.5t6 36.5zM446 0l-70 279q-20 78 -86 124q-68 47 -155 47q-67 0 -120 -59l27 -108q27 87 113 87q103 0 129 -98l47 -190h-246l-36 -82h397z" />
    <glyph glyph-name="reharabic" unicode="&#x631;" horiz-adv-x="389" arabic-form="isolated" 
d="M344 30l-105 421l-88 -28l99 -396q16 -63 -9.5 -99.5t-86.5 -36.5q-85 0 -161 38l68 -94q50 -27 113 -27q104 0 149 61q46 61 21 161z" />
    <glyph glyph-name="zainarabic" unicode="&#x632;" horiz-adv-x="389" arabic-form="isolated" 
d="M201 592q-5 22 -24 37.5t-40 15.5t-32.5 -15.5t-6.5 -37.5q5 -21 24.5 -36.5t40.5 -15.5t32 15.5t6 36.5zM344 30l-105 421l-88 -28l99 -396q16 -63 -9.5 -99.5t-86.5 -36.5q-85 0 -161 38l68 -94q50 -27 113 -27q104 0 149 61q46 61 21 161z" />
    <glyph glyph-name="seenarabic" unicode="&#x633;" horiz-adv-x="1233" arabic-form="isolated" 
d="M1144 172l-70 281l-88 -29l60 -242q24 -98 -73 -98h-102l-81 324l-88 -28l74 -298h-193l-69 275l-87 -29l74 -298q17 -68 -17.5 -102t-120.5 -34q-105 0 -162 50t-86 167l-22 87l-87 -28q41 -174 106 -251q92 -111 271 -111q127 0 182 48t38 144h396q86 0 125 47t20 125z
" />
    <glyph glyph-name="sheenarabic" unicode="&#x634;" horiz-adv-x="1233" arabic-form="isolated" 
d="M1144 172l-70 281l-88 -29l60 -242q24 -98 -73 -98h-102l-81 324l-88 -28l74 -298h-193l-69 275l-87 -29l74 -298q17 -68 -17.5 -102t-120.5 -34q-105 0 -162 50t-86 167l-22 87l-87 -28q41 -174 106 -251q92 -111 271 -111q127 0 182 48t38 144h396q86 0 125 47t20 125z
M676 592q-5 22 -24.5 37.5t-40.5 15.5q-22 0 -32.5 -15.5t-5.5 -37.5q5 -21 24 -36.5t40 -15.5t32.5 15.5t6.5 36.5zM810 592q-5 22 -24.5 37.5t-40.5 15.5t-32 -15.5t-6 -37.5q5 -21 24 -36.5t40 -15.5t32.5 15.5t6.5 36.5zM715 708q-5 21 -24.5 36.5t-40.5 15.5
t-32.5 -15.5t-6.5 -36.5q5 -20 24.5 -35.5t40.5 -15.5t32.5 15.5t6.5 35.5z" />
    <glyph glyph-name="sadarabic" unicode="&#x635;" horiz-adv-x="1249" arabic-form="isolated" 
d="M1193 0q-5 23 -12 60l-14 67q-33 130 -97 204q-104 119 -249 115q-166 -5 -224 -148q-30 -73 -29 -156l-54 215l-87 -29l74 -298q17 -68 -17.5 -102t-120.5 -34q-105 0 -162 50t-86 167l-22 87l-87 -28q41 -174 106 -251q92 -111 271 -111q127 0 182 48t38 144h590z
M1081 84h-446q-16 84 41 173q63 102 169 102q87 0 151 -72q53 -62 75 -154q7 -23 10 -49z" />
    <glyph glyph-name="dadarabic" unicode="&#x636;" horiz-adv-x="1249" arabic-form="isolated" 
d="M1193 0q-5 23 -12 60l-14 67q-33 130 -97 204q-104 119 -249 115q-166 -5 -224 -148q-30 -73 -29 -156l-54 215l-87 -29l74 -298q17 -68 -17.5 -102t-120.5 -34q-105 0 -162 50t-86 167l-22 87l-87 -28q41 -174 106 -251q92 -111 271 -111q127 0 182 48t38 144h590z
M1081 84h-446q-16 84 41 173q63 102 169 102q87 0 151 -72q53 -62 75 -154q7 -23 10 -49zM847 593q-5 21 -25 36.5t-42 15.5q-23 0 -35 -15.5t-7 -36.5q5 -22 25 -37t43 -15q22 0 34 15t7 37z" />
    <glyph glyph-name="taharabic" unicode="&#x637;" horiz-adv-x="833" arabic-form="isolated" 
d="M792 0q-3 10 -16 69q-9 47 -15 69q-30 119 -92 193q-104 119 -250 115q-173 -5 -231 -161l-85 342l-88 -29l129 -514h-75l-20 -84h743zM681 84h-446q-2 96 48 179q64 101 165 97q84 -5 143 -67q59 -71 81 -164q6 -23 9 -45z" />
    <glyph glyph-name="zaharabic" unicode="&#x638;" horiz-adv-x="833" arabic-form="isolated" 
d="M430 592q-5 22 -24.5 37.5t-40.5 15.5q-20 0 -31.5 -15.5t-6.5 -37.5q5 -21 24.5 -36.5t39.5 -15.5q21 0 32.5 15.5t6.5 36.5zM792 0q-3 10 -16 69q-9 47 -15 69q-30 119 -92 193q-104 119 -250 115q-173 -5 -231 -161l-85 342l-88 -29l129 -514h-75l-20 -84h743zM681 84
h-446q-2 96 48 179q64 101 165 97q84 -5 143 -67q59 -71 81 -164q6 -23 9 -45z" />
    <glyph glyph-name="ainarabic" unicode="&#x639;" horiz-adv-x="546" arabic-form="isolated" 
d="M457 207l-70 83h-177l-5 21q-17 68 42 68q41 0 74 -35l47 62q-61 55 -132 55q-76 0 -108 -47q-30 -48 -12 -114l8 -33q-59 -30 -81.5 -90.5t-3.5 -138.5q25 -102 113 -166q89 -64 201 -64q89 0 147 39l-27 103q-40 -40 -71 -50q-24 -8 -70 -8q-75 0 -127 38.5t-69 107.5
q-19 75 13 122t105 47h101h102z" />
    <glyph glyph-name="ghainarabic" unicode="&#x63a;" horiz-adv-x="546" arabic-form="isolated" 
d="M252 592q-5 21 -24.5 36t-40.5 15t-32.5 -15t-6.5 -36t24.5 -36.5t40.5 -15.5t32.5 15.5t6.5 36.5zM457 207l-70 83h-177l-5 21q-17 68 42 68q41 0 74 -35l47 62q-61 55 -132 55q-76 0 -108 -47q-30 -48 -12 -114l8 -33q-59 -30 -81.5 -90.5t-3.5 -138.5
q25 -102 113 -166q89 -64 201 -64q89 0 147 39l-27 103q-40 -40 -71 -50q-24 -8 -70 -8q-75 0 -127 38.5t-69 107.5q-19 75 13 122t105 47h101h102z" />
    <glyph glyph-name="feharabic" unicode="&#x641;" horiz-adv-x="808" arabic-form="isolated" 
d="M476 592q-5 21 -24.5 36t-41.5 15q-21 0 -32.5 -15t-6.5 -36t24.5 -36.5t40.5 -15.5q22 0 33.5 15.5t6.5 36.5zM731 157l-38 153q-16 65 -72 109q-66 51 -168 51q-89 0 -130 -43.5t-23 -116.5q21 -82 59 -117q49 -43 144 -43h135q12 -47 -16 -60q-16 -6 -69 -6h-332
q-100 0 -124 98l-47 187l-69 -96l25 -101q19 -77 80.5 -124.5t142.5 -47.5h358q90 0 125 31q42 37 19 126zM599 307l19 -77h-114q-61 0 -79 12q-17 14 -30 65q-19 79 79 79q106 0 125 -79z" />
    <glyph glyph-name="qafarabic" unicode="&#x642;" horiz-adv-x="647" arabic-form="isolated" 
d="M385 592q-5 21 -24.5 36t-40.5 15t-32.5 -15t-6.5 -36t24.5 -36.5t40.5 -15.5t32.5 15.5t6.5 36.5zM251 592q-5 21 -24.5 36t-41.5 15q-21 0 -32.5 -15t-6.5 -36t24.5 -36.5t40.5 -15.5q22 0 33.5 15.5t6.5 36.5zM600 16q-1 5 -3.5 15t-6 26.5t-7.5 32.5q-8 46 -17 86
q-68 269 -264 269q-104 0 -135 -72q-27 -59 -3 -155q24 -95 80 -157q68 -72 171 -72q63 0 89 32l1 -4q20 -71 -32 -101q-35 -21 -110 -19q-110 0 -171 56q-60 55 -96 197l-77 -31q52 -161 122 -228q86 -83 243 -83q264 0 216 208zM459 218q36 -144 -65 -144t-137 144t65 144
t137 -144z" />
    <glyph glyph-name="kafarabic" unicode="&#x643;" horiz-adv-x="809" arabic-form="isolated" 
d="M488 300l-15 58h-163l-7 29q-17 68 41 68q29 0 58 -28l33 43q-51 42 -98 42q-58 0 -82.5 -38t-10.5 -96l5 -20h-49l-33 -58h321zM729 172l-118 473l-86 -28l108 -435q24 -98 -75 -98h-337q-100 0 -124 98l-47 187l-69 -96l25 -101q19 -77 80.5 -124.5t142.5 -47.5h355
q87 0 126 46.5t19 125.5z" />
    <glyph glyph-name="lamarabic" unicode="&#x644;" horiz-adv-x="641" arabic-form="isolated" 
d="M598 27l-155 616l-88 -29l147 -589q18 -73 -21 -104q-33 -24 -118 -24q-107 0 -165 56q-55 54 -92 197l-87 -31q52 -156 127 -228q88 -83 238 -83q268 0 214 219z" />
    <glyph glyph-name="meemarabic" unicode="&#x645;" horiz-adv-x="732" arabic-form="isolated" 
d="M637 229q-22 90 -78 151q-68 71 -169 71h-236q-106 0 -149 -41q-46 -49 -18 -159l110 -444l87 29l-103 415q-18 68 9 92q22 21 104 21h54q-17 -50 4 -135q23 -92 79 -152q68 -71 170 -71q101 0 133 71q27 58 3 152zM543 229q36 -139 -63 -139q-97 0 -133 139
q-34 139 64 139t132 -139z" />
    <glyph glyph-name="noonarabic" unicode="&#x646;" horiz-adv-x="641" arabic-form="isolated" 
d="M293 311q-5 21 -24 36.5t-40 15.5t-32.5 -15.5t-6.5 -36.5t24.5 -36t40.5 -15q22 0 32.5 15t5.5 36zM514 357l-87 -29l74 -298q17 -68 -17.5 -102t-120.5 -34q-105 0 -162 50t-86 167l-22 87l-87 -28q41 -174 106 -251q92 -111 271 -111q134 0 188 53t28 159z" />
    <glyph glyph-name="heharabic" unicode="&#x647;" horiz-adv-x="492" arabic-form="isolated" 
d="M397 229q-24 96 -80 155q-71 72 -179 72t-141 -72q-29 -57 -5 -155q24 -97 81 -156q72 -73 179 -73q109 0 142 73q28 59 3 156zM304 229q38 -149 -72 -149q-108 0 -146 149q-36 147 72 147q110 0 146 -147z" />
    <glyph glyph-name="wawarabic" unicode="&#x648;" horiz-adv-x="475" arabic-form="isolated" 
d="M424 39q-3 11 -13 63q-8 39 -17 73q-28 115 -77 177q-67 82 -182 82q-105 0 -135 -71q-26 -61 -3 -153q22 -93 78 -152q67 -72 172 -72q51 0 89 24q17 -113 -90 -119q-74 -5 -168 35l65 -92q49 -26 123 -26q107 0 145 68q37 59 13 163zM291 210q36 -141 -65 -141
q-100 0 -136 141q-36 142 66 142q99 0 135 -142z" />
    <glyph glyph-name="alefmaksuraarabic" unicode="&#x649;" horiz-adv-x="646" arabic-form="isolated" 
d="M514 380q-83 71 -176 71q-87 0 -126 -48t-19 -129l35 -139h248l29 -118q16 -64 -32 -96q-38 -26 -108 -26q-104 0 -163 56q-58 53 -94 194l-88 -29q51 -153 124 -222q88 -86 242 -86q112 0 170 44q70 55 43 165l-50 201h-247l-12 49q-26 102 73 102q69 0 143 -81z" />
    <glyph glyph-name="yeharabic" unicode="&#x64a;" horiz-adv-x="646" arabic-form="isolated" 
d="M514 380q-83 71 -176 71q-87 0 -126 -48t-19 -129l35 -139h248l29 -118q16 -64 -32 -96q-38 -26 -108 -26q-104 0 -163 56q-58 53 -94 194l-88 -29q51 -153 124 -222q88 -86 242 -86q112 0 170 44q70 55 43 165l-50 201h-247l-12 49q-26 102 73 102q69 0 143 -81z
M544 -323q-5 20 -24.5 35.5t-40.5 15.5t-32.5 -15.5t-6.5 -35.5q5 -21 24.5 -36.5t40.5 -15.5t32.5 15.5t6.5 36.5zM410 -323q-5 20 -24.5 35.5t-40.5 15.5q-22 0 -33 -15.5t-6 -35.5q5 -21 24 -36.5t41 -15.5q21 0 32.5 15.5t6.5 36.5z" />
    <glyph glyph-name="fathatanarabic" unicode="&#xfe70;" arabic-form="isolated" 
d="M31 768l-131 -22q-26 -4 -34 -9q-14 -6 -21 -27l151 20q30 0 35 38zM30 721l-149 -23q-30 4 -42 -36q105 7 149 13q37 4 42 46z" />
    <glyph glyph-name="dammatanarabic" unicode="&#xfe72;" arabic-form="isolated" 
d="M81 707l-16 44q-20 12 -23 26q-1 3 1 25t0 30q-4 12 -9 19q-16 25 -53 25q-46 -25 -30 -91q14 -19 44 -40q-21 -25 -39 -30q-8 40 -17 61q-17 34 -47 29q-20 -11 -18 -45q4 -20 10 -58q0 4 5 22q1 16 10 23q9 9 19.5 0t13.5 -23q6 -26 -13 -60q76 18 107 65
q20 -14 55 -22zM11 796q-27 22 -30 32q0 1 -0.5 3t-0.5 4q12 5 23 -15q8 -11 8 -24z" />
    <glyph glyph-name="kasratanarabic" unicode="&#xfe74;" arabic-form="isolated" 
d="M221 -204l-132 -21q-27 -5 -33 -9q-14 -8 -21 -28l152 20q31 2 34 38zM221 -250l-149 -23q-33 4 -43 -37q117 11 149 15q40 5 43 45z" />
    <glyph glyph-name="fathaarabic" unicode="&#xfe76;" arabic-form="isolated" 
d="M1 786l-120 -73q-30 -6 -24 -50q89 42 124 61q30 20 20 62z" />
    <glyph glyph-name="dammaarabic" unicode="&#xfe78;" arabic-form="isolated" 
d="M20 710l-10 42q-12 4 -14 13v3q1 3 1.5 8.5t0.5 12.5q3 16 -8 32q-14 23 -40 23q-27 0 -37 -16q-19 -18 -12 -46q9 -17 41 -35q-27 -40 -95 -83q14 -2 22 -2q37 0 61 21q11 7 46 51zM-43 800q6 -8 5 -24q-26 14 -33 24q-2 9 7 13q10 4 21 -13z" />
    <glyph glyph-name="kasraarabic" unicode="&#xfe7a;" arabic-form="isolated" 
d="M211 -204l-120 -73q-30 -6 -24 -50q107 51 124 61q32 20 20 62z" />
    <glyph glyph-name="shaddaarabic" unicode="&#xfe7c;" arabic-form="isolated" 
d="M24 839l-17 -6q4 -12 6 -54q0 -17 -12 -11q-11 4 -21 17q-4 4 -17 25l-13 -5q7 -31 3 -64q-3 -19 -16 -19q-5 0 -8 1q-18 10 -32 56l-12 -9q6 -57 19 -77q15 -29 55 -29q17 8 32 50l8 -5q33 -8 47.5 11t7.5 50q-9 31 -30 69z" />
    <glyph glyph-name="sukunarabic" unicode="&#xfe7e;" arabic-form="isolated" 
d="M-15 690q15 15 9 43q-9 34 -42 62q-32 29 -64 29q-66 -31 -49 -96q3 -10 9 -24q38 -41 80 -41q36 0 57 27zM-48 717q-15 -9 -27 -9q-22 0 -32 25q-12 29 5 45q34 -11 54 -61z" />
    <glyph glyph-name="alefwaslaisolated" unicode="&#x671;" horiz-adv-x="181" arabic-form="isolated" 
d="M144 0l-160 645l-88 -30l153 -615h95zM22 745q-35 44 -78 44q-43 -33 -61 -55q-27 -8 -47 -6q-27 22 -33 20q-9 -16 -10 -18q-2 -8 -6 -17.5t-4 -10.5q18 -6 27 1l43 -21h136q48 0 33 63zM-37 750q35 -11 37 -17q0 -9 -79 -5q25 26 42 22z" />
    <glyph glyph-name="peharabic" unicode="&#x67e;" horiz-adv-x="809" arabic-form="isolated" 
d="M729 172l-70 279l-87 -25l61 -244q24 -98 -75 -98h-337q-100 0 -124 98l-47 187l-69 -96l25 -101q19 -77 80.5 -124.5t142.5 -47.5h355q87 0 126 46.5t19 125.5zM564 -140q-5 21 -24 36t-40 15q-20 0 -32 -15t-7 -36t24.5 -36.5t39.5 -15.5q21 0 32.5 15.5t6.5 36.5z
M430 -140q-5 21 -24 36t-40 15t-32.5 -15t-6.5 -36t24 -36.5t40 -15.5t32.5 15.5t6.5 36.5zM528 -257q-5 21 -24.5 36.5t-40.5 15.5t-32.5 -15.5t-6.5 -36.5t24.5 -36.5t40.5 -15.5t32.5 15.5t6.5 36.5z" />
    <glyph glyph-name="tcheharabic" unicode="&#x686;" horiz-adv-x="569" arabic-form="isolated" 
d="M416 93q-5 21 -24 36.5t-40 15.5q-22 0 -33.5 -15.5t-6.5 -36.5q6 -22 25 -36.5t41 -14.5q21 0 32.5 15t5.5 36zM480 212q-40 113 -121 176t-188 63q-63 0 -107 -23q-41 -22 -83 -73l80 -62q34 39 60 56q28 16 71 16q92 0 150 -70h-110q-115 0 -169 -70q-53 -71 -26 -177
q26 -104 115 -171q92 -69 201 -69q88 0 146 38l-25 101q-32 -38 -68 -48q-26 -8 -73 -8q-71 0 -127 44q-55 43 -72 113q-19 73 13 118.5t106 45.5h227zM281 93q-5 21 -24.5 36.5t-40.5 15.5t-32 -15.5t-6 -36.5q6 -22 24.5 -36.5t39.5 -14.5t33 15t6 36zM378 -23
q-5 21 -24 36t-40 15t-33 -15t-7 -36t24.5 -36.5t40.5 -15.5t32.5 15.5t6.5 36.5z" />
    <glyph glyph-name="jeharabic" unicode="&#x698;" horiz-adv-x="389" arabic-form="isolated" 
d="M344 30l-105 421l-88 -28l99 -396q16 -63 -9.5 -99.5t-86.5 -36.5q-85 0 -161 38l68 -94q50 -27 113 -27q104 0 149 61q46 61 21 161zM103 708q-5 21 -24.5 36.5t-40.5 15.5t-32 -15.5t-6 -36.5q5 -22 24 -36.5t40 -14.5t32.5 14.5t6.5 36.5zM200 592q-5 21 -24.5 36
t-40.5 15q-22 0 -33.5 -15t-6.5 -36t24.5 -36.5t41.5 -15.5q21 0 32.5 15.5t6.5 36.5zM64 592q-5 21 -24 36t-40 15q-20 0 -31.5 -15t-6.5 -36t24.5 -36.5t39.5 -15.5q21 0 32 15.5t6 36.5z" />
    <glyph glyph-name="veharabic" unicode="&#x6a4;" horiz-adv-x="808" arabic-form="isolated" 
d="M450 708q-5 21 -24 36.5t-40 15.5t-32.5 -15.5t-6.5 -36.5t24.5 -36t40.5 -15t32 14.5t6 36.5zM546 592q-5 21 -24.5 36t-40.5 15t-32.5 -15t-6.5 -36t24.5 -36.5t40.5 -15.5t32.5 15.5t6.5 36.5zM412 592q-5 21 -24.5 36t-40.5 15q-22 0 -33 -15t-6 -36t24 -36.5
t41 -15.5q21 0 32.5 15.5t6.5 36.5zM731 157l-38 153q-16 65 -72 109q-66 51 -168 51q-89 0 -130 -43.5t-23 -116.5q21 -82 59 -117q49 -43 144 -43h135q12 -47 -16 -60q-16 -6 -69 -6h-332q-100 0 -124 98l-47 187l-69 -96l25 -101q19 -77 80.5 -124.5t142.5 -47.5h358
q90 0 125 31q42 37 19 126zM599 307l19 -77h-114q-61 0 -79 12q-17 14 -30 65q-19 79 79 79q106 0 125 -79z" />
    <glyph glyph-name="alefwaslafinal" unicode="&#x671;" horiz-adv-x="274" arabic-form="final" 
d="M287 0l-21 84h-94q-49 0 -61 48l-127 513l-88 -30l120 -486q15 -59 58.5 -94t106.5 -35h106zM22 745q-35 44 -78 44q-43 -33 -61 -55q-27 -8 -47 -6q-27 22 -33 20q-9 -16 -10 -18q-2 -8 -6 -17.5t-4 -10.5q18 -6 27 1l43 -21h136q48 0 33 63zM-37 750q35 -11 37 -17
q0 -9 -79 -5q25 26 42 22z" />
    <glyph glyph-name="pehfinalarabic" unicode="&#x67e;" horiz-adv-x="924" arabic-form="final" 
d="M936 0l-21 84h-41q-123 0 -156 129l-59 238l-87 -25l61 -244q24 -98 -75 -98h-337q-100 0 -124 98l-47 187l-69 -96l25 -101q19 -77 80.5 -124.5t142.5 -47.5h355q109 0 141 74q62 -74 164 -74h47zM564 -140q-5 21 -24 36t-40 15q-20 0 -32 -15t-7 -36t24.5 -36.5
t39.5 -15.5q21 0 32.5 15.5t6.5 36.5zM430 -140q-5 21 -24 36t-40 15t-32.5 -15t-6.5 -36t24 -36.5t40 -15.5t32.5 15.5t6.5 36.5zM528 -257q-5 21 -24.5 36.5t-40.5 15.5t-32.5 -15.5t-6.5 -36.5t24.5 -36.5t40.5 -15.5t32.5 15.5t6.5 36.5z" />
    <glyph glyph-name="pehinitialarabic" unicode="&#x67e;" horiz-adv-x="290" arabic-form="initial" 
d="M208 177l-68 274l-87 -28l60 -239q25 -102 -74 -102h-71l20 -82h77q85 0 124 50q39 49 19 127zM285 -140q-5 21 -24 36t-40 15t-32.5 -15t-6.5 -36t24 -36.5t40 -15.5t32.5 15.5t6.5 36.5zM151 -140q-5 21 -24 36t-40 15q-22 0 -33 -15t-6 -36t24 -36.5t40 -15.5
t32.5 15.5t6.5 36.5zM248 -257q-6 22 -24.5 37t-39.5 15t-33 -15.5t-6 -36.5q5 -21 24.5 -36.5t40.5 -15.5t32 15.5t6 36.5z" />
    <glyph glyph-name="pehmedialarabic" unicode="&#x67e;" horiz-adv-x="389" arabic-form="medial" 
d="M401 0l-21 82h-54q-98 0 -124 99l-67 270l-87 -28l60 -239q26 -102 -75 -102h-65l20 -82h72q90 0 128 53q65 -53 153 -53h60zM354 -140q-5 21 -24 36t-40 15q-22 0 -34 -15t-7 -36t24.5 -36.5t41.5 -15.5q21 0 32.5 15.5t6.5 36.5zM218 -140q-5 21 -23.5 36t-39.5 15
t-33 -15t-7 -36t24.5 -36.5t40.5 -15.5t32 15.5t6 36.5zM316 -257q-5 21 -24.5 36.5t-40.5 15.5q-20 0 -31.5 -15.5t-6.5 -36.5t24.5 -36.5t39.5 -15.5q21 0 32.5 15.5t6.5 36.5z" />
    <glyph glyph-name="vehfinalarabic" unicode="&#x6a4;" horiz-adv-x="838" arabic-form="final" 
d="M450 708q-5 21 -24 36.5t-40 15.5t-32.5 -15.5t-6.5 -36.5t24.5 -36t40.5 -15t32 14.5t6 36.5zM546 592q-5 21 -24.5 36t-40.5 15t-32.5 -15t-6.5 -36t24.5 -36.5t40.5 -15.5t32.5 15.5t6.5 36.5zM412 592q-5 21 -24.5 36t-40.5 15q-22 0 -33 -15t-6 -36t24 -36.5
t41 -15.5q21 0 32.5 15.5t6.5 36.5zM850 0l-21 82h-142q45 67 28 142q-21 96 -79 155q-69 72 -175 72q-104 0 -137 -72q-28 -60 -1 -155q20 -74 98 -140h-200q-100 0 -124 98l-47 187l-69 -96l25 -101q19 -77 80.5 -124.5t142.5 -47.5h288q29 0 57 6q30 -6 59 -6h217z
M484 367q49 0 85 -33t49 -86q12 -50 -3 -93q-17 -47 -62 -64q-53 16 -95 64q-37 45 -49 93q-13 52 6.5 85.5t68.5 33.5z" />
    <glyph glyph-name="vehinitialarabic" unicode="&#x6a4;" horiz-adv-x="494" arabic-form="initial" 
d="M133 708q-5 21 -24.5 36.5t-40.5 15.5t-32 -15.5t-6 -36.5q5 -22 24 -36.5t40 -14.5t32.5 14.5t6.5 36.5zM228 592q-5 21 -24 36t-40 15t-32.5 -15t-6.5 -36t24.5 -36.5t40.5 -15.5t32 15.5t6 36.5zM94 592q-5 21 -24 36t-40 15q-22 0 -32.5 -15t-5.5 -36t24 -36.5
t40 -15.5t32 15.5t6 36.5zM418 157l-38 153q-16 65 -74 109q-64 51 -167 51q-89 0 -130 -43.5t-23 -116.5q21 -83 60 -117q49 -43 144 -43h135q12 -46 -17 -60q-15 -6 -68 -6h-272l20 -84h285q90 0 124 31q43 37 21 126zM286 307l19 -77h-116q-60 0 -78 12q-18 13 -31 65
q-10 40 10 59.5t70 19.5q107 0 126 -79z" />
    <glyph glyph-name="vehmedialarabic" unicode="&#x6a4;" horiz-adv-x="531" arabic-form="medial" 
d="M144 708q-5 21 -24.5 36.5t-40.5 15.5t-32 -15.5t-6 -36.5q5 -22 24 -36.5t40 -14.5t32.5 14.5t6.5 36.5zM241 592q-5 21 -24.5 36t-40.5 15q-22 0 -33.5 -15t-6.5 -36t24.5 -36.5t41.5 -15.5q21 0 32.5 15.5t6.5 36.5zM105 592q-5 21 -24 36t-40 15t-32.5 -15t-6.5 -36
t24.5 -36.5t40.5 -15.5t32 15.5t6 36.5zM544 0l-21 82h-143q44 67 29 142q-22 94 -80 155q-69 72 -174 72q-103 0 -138 -72q-26 -60 0 -155q20 -75 97 -142h-146l20 -82h221q30 0 57 6q32 -6 61 -6h217zM176 367q50 0 86 -33t49 -86q12 -50 -3 -93q-17 -48 -63 -64
q-51 16 -95 64q-36 43 -48 93q-13 52 6.5 85.5t67.5 33.5z" />
    <glyph glyph-name="tchehfinalarabic" unicode="&#x686;" horiz-adv-x="717" arabic-form="final" 
d="M729 0l-21 84h-27q-108 0 -175 94l-110 177q-81 96 -225 96q-63 0 -107 -23q-39 -21 -82 -73l81 -62q32 39 59 56q28 16 70 16q92 0 150 -70h-110q-115 0 -169 -70q-53 -71 -26 -177q26 -104 115 -171q92 -69 201 -69q88 0 146 38l-25 101q-54 -56 -141 -56
q-71 0 -127 44q-55 43 -72 113q-19 73 13 118.5t106 45.5h136q98 -212 303 -212h37zM416 93q-5 21 -24 36.5t-40 15.5q-22 0 -33.5 -15.5t-6.5 -36.5q6 -22 25 -36.5t41 -14.5q21 0 32.5 15t5.5 36zM281 93q-5 21 -24.5 36.5t-40.5 15.5t-32 -15.5t-6 -36.5
q6 -22 24.5 -36.5t39.5 -14.5t33 15t6 36zM378 -23q-5 21 -24 36t-40 15t-33 -15t-7 -36t24.5 -36.5t40.5 -15.5t32.5 15.5t6.5 36.5z" />
    <glyph glyph-name="tchehinitialarabic" unicode="&#x686;" horiz-adv-x="557" arabic-form="initial" 
d="M520 0l-30 118q-36 146 -95 223q-86 110 -237 110q-121 0 -196 -98l83 -63q51 77 134 77q98 0 152 -84q34 -52 62 -165l9 -36h-434l20 -82h532zM421 -140q-5 21 -23.5 36t-39.5 15t-33 -15t-7 -36t24.5 -36.5t40.5 -15.5t32 15.5t6 36.5zM287 -140q-5 21 -23.5 36
t-39.5 15t-33 -15t-7 -36t24.5 -36.5t40.5 -15.5t32 15.5t6 36.5zM385 -257q-5 21 -24.5 36.5t-40.5 15.5t-32 -15.5t-6 -36.5t24 -36.5t40 -15.5t32.5 15.5t6.5 36.5z" />
    <glyph glyph-name="tchehmedialarabic" unicode="&#x686;" horiz-adv-x="646" arabic-form="medial" 
d="M658 0l-21 84h-124l-9 34q-36 147 -96 223q-86 110 -237 110q-120 0 -195 -98l83 -63q51 77 133 77q99 0 153 -84q34 -52 62 -165l9 -36h-448l20 -82h670zM447 -140q-5 21 -23.5 36t-39.5 15t-33 -15t-7 -36t24.5 -36.5t40.5 -15.5t32 15.5t6 36.5zM312 -140
q-5 21 -23.5 36t-40.5 15q-21 0 -32.5 -15t-6.5 -36t24 -36.5t40 -15.5q22 0 33 15.5t6 36.5zM411 -257q-5 21 -24.5 36.5t-41.5 15.5q-21 0 -32.5 -15.5t-6.5 -36.5t24.5 -36.5t40.5 -15.5q22 0 33.5 15.5t6.5 36.5z" />
    <glyph glyph-name="jehfinalarabic" unicode="&#x698;" horiz-adv-x="481" arabic-form="final" 
d="M493 0l-21 84h-141l-92 367l-88 -28l99 -396q16 -63 -9.5 -99.5t-86.5 -36.5q-85 0 -161 38l68 -94q50 -27 113 -27q95 0 141.5 52t35.5 140h142zM103 708q-5 21 -24.5 36.5t-40.5 15.5t-32 -15.5t-6 -36.5q5 -22 24 -36.5t40 -14.5t32.5 14.5t6.5 36.5zM200 592
q-5 21 -24.5 36t-40.5 15q-22 0 -33.5 -15t-6.5 -36t24.5 -36.5t41.5 -15.5q21 0 32.5 15.5t6.5 36.5zM64 592q-5 21 -24 36t-40 15q-20 0 -31.5 -15t-6.5 -36t24.5 -36.5t39.5 -15.5q21 0 32 15.5t6 36.5z" />
    <glyph glyph-name="alefmaksurainitialarabic" unicode="&#x6cc;" horiz-adv-x="290" arabic-form="initial" 
d="M208 177l-68 274l-87 -28l60 -239q25 -102 -74 -102h-71l20 -82h77q85 0 124 50q39 49 19 127zM266 -140q-5 21 -23.5 36t-39.5 15q-22 0 -34 -15t-7 -36t24.5 -36.5t41.5 -15.5q21 0 32 15.5t6 36.5zM131 -140q-5 21 -24 36t-39 15q-21 0 -33 -15t-7 -36t24.5 -36.5
t40.5 -15.5q20 0 31.5 15.5t6.5 36.5z" />
    <glyph glyph-name="alefmaksuramedialarabic" unicode="&#x6cc;" horiz-adv-x="389" arabic-form="medial" 
d="M401 0l-21 82h-54q-98 0 -124 99l-67 270l-87 -28l60 -239q26 -102 -75 -102h-65l20 -82h72q90 0 128 53q65 -53 153 -53h60zM355 -140q-5 21 -24 36t-40 15t-32.5 -15t-6.5 -36t24 -36.5t40 -15.5t32.5 15.5t6.5 36.5zM221 -140q-5 21 -24 36t-40 15q-22 0 -33 -15
t-6 -36t24 -36.5t40 -15.5t32.5 15.5t6.5 36.5z" />
    <glyph glyph-name="shaddadammatanarabic" unicode="&#xfc5e;" arabic-form="isolated" 
d="M2 866l-14 44q-19 10 -24 26q-1 3 1 25t0 30q-1 7 -8 19q-18 26 -55 26q-47 -26 -30 -91q15 -21 43 -41q-20 -25 -38 -29q-9 47 -18 60q-18 34 -46 29q-19 -10 -19 -45q4 -20 12 -58q0 3 4 22q3 17 10 24q9 8 19.5 -1t13.5 -23q6 -23 -14 -60q80 18 109 65q22 -15 54 -22
zM-9 839l-16 -6q5 -15 7 -54q0 -19 -13 -11q-14 5 -23 17q0 1 -15 24l-13 -5q7 -30 3 -64q-5 -18 -17 -18q-5 0 -8 1q-12 7 -32 56l-11 -9q6 -58 19 -77q15 -29 54 -29q6 2 10.5 6t8 10t5 9.5t4.5 12.5t4 11l9 -4q33 -8 47.5 10.5t7.5 50.5q-8 27 -31 69zM-67 956
q-29 22 -30 30q-2 6 -1 8q9 5 23 -15q6 -9 8 -23z" />
    <glyph glyph-name="shaddakasratanarabic" unicode="&#xfc5f;" arabic-form="isolated" 
d="M-53 1000l-17 -7q4 -12 6 -53q0 -16 -12 -12q-13 6 -22 18q-3 1 -19 25l-11 -6q7 -27 2 -63q-3 -20 -14 -20q-4 0 -9 3q-13 5 -20 24q-8 20 -12 31l-13 -9q7 -57 20 -78q15 -27 55 -27q18 5 31 49l10 -5q33 -8 47.5 11t6.5 50q-6 24 -29 69zM-8 848l-105 -66
q-24 -13 -28 -19q-9 -10 -7 -35l125 69q25 11 15 51zM10 787l-120 -71q-30 -6 -23 -52q97 48 123 63q30 20 20 60z" />
    <glyph glyph-name="shaddafathaarabic" unicode="&#xfc60;" arabic-form="isolated" 
d="M-20 917l-121 -73q-30 -5 -24 -50q103 49 124 62q31 18 21 61zM-8 838l-17 -6q5 -13 8 -54q0 -19 -14 -11q-15 6 -23 17q0 2 -15 24l-13 -5q8 -33 3 -64q-5 -18 -16 -18q-5 0 -9 1q-4 2 -8 6.5t-7.5 11.5t-5.5 11.5t-5.5 14t-4.5 12.5l-12 -9q6 -56 19 -77q17 -29 54 -29
q19 7 32 49l9 -4q34 -8 48.5 10.5t6.5 50.5q-5 20 -30 69z" />
    <glyph glyph-name="shaddadammaarabicX" unicode="&#xfc61;" arabic-form="isolated" 
d="M6 861l-10 42q-13 5 -15 13q0 4 4 24q3 17 -9 32q-14 23 -41 23q-25 0 -35 -16q-21 -17 -15 -44q11 -17 42 -36q-25 -40 -93 -83q14 -2 22 -2q34 0 60 20q15 13 46 52zM0 840l-16 -7q5 -14 5 -54q1 -8 -2 -10.5t-9 -0.5q-14 4 -23 18l-18 25l-12 -6q8 -31 2 -63
q-2 -20 -15 -20q-2 0 -7 3q-12 5 -21 24q-1 3 -5 14t-7 17l-12 -9q6 -59 20 -78q14 -29 55 -29q5 2 9.5 6t8 10.5t5 9.5t4.5 12.5t4 11.5l8 -4q33 -8 47.5 10.5t6.5 50.5q-5 21 -28 69zM-56 952q4 -7 3 -23q-24 10 -33 22q-2 9 7 15q13 2 23 -14z" />
    <glyph glyph-name="shaddakasraarabic" unicode="&#xfc62;" arabic-form="isolated" 
d="M-31 929l-17 -6q7 -18 8 -54q0 -17 -13 -12q-12 5 -17.5 11t-21.5 31l-12 -5q8 -31 2 -62q-5 -20 -16 -20q-2 0 -8 2q-4 2 -7.5 5.5t-6 7t-5.5 10.5l-4.5 10.5t-4.5 11.5t-4 10l-12 -8q8 -60 20 -79q15 -28 54 -28q6 2 10.5 6t8 10t5 10t4 12.5t3.5 10.5l10 -5
q34 -6 48 12.5t7 50.5q-5 21 -31 68zM31 787l-122 -71q-29 -6 -22 -52q100 49 122 63q33 19 22 60z" />
    <glyph glyph-name="alefwithfathatanfinal" unicode="&#xfd3c;" horiz-adv-x="274" arabic-form="final" 
d="M287 0l-21 84h-94q-49 0 -61 48l-127 513l-88 -30l120 -486q15 -59 58.5 -94t106.5 -35h106zM26 787l-131 -22q-27 -5 -34 -9q-14 -6 -20 -27l151 20q31 0 34 38zM25 740l-148 -23q-31 5 -42 -36q104 7 148 13q39 4 42 46z" />
    <glyph glyph-name="alefwithfathatanisolated" unicode="&#xfd3d;" horiz-adv-x="181" arabic-form="isolated" 
d="M144 0l-160 645l-88 -30l153 -615h95zM26 787l-131 -22q-27 -5 -34 -9q-14 -6 -20 -27l151 20q31 0 34 38zM25 740l-148 -23q-31 5 -42 -36q104 7 148 13q39 4 42 46z" />
    <glyph glyph-name="allahisolated" unicode="&#xfdf2;" horiz-adv-x="1228" arabic-form="isolated" 
d="M1146 177l-116 466l-87 -28l107 -429q26 -102 -73 -102h-84q-100 0 -125 97l-115 464l-86 -30l107 -429q26 -102 -74 -102q-38 0 -56 -2h-24q-98 0 -123 102l-67 267h-203q-189 0 -135 -222q57 -229 248 -229q94 0 132 60q68 -60 164 -60h45h45q92 0 129 54
q65 -54 153 -54h96q84 0 123 50t19 127zM254 374l36 -145q19 -73 7 -107q-12 -40 -72 -40q-59 0 -92 40q-28 34 -47 107q-18 74 -6 106q12 39 72 39h102zM606 839l-17 -6q4 -12 6 -54q0 -17 -12 -11q-12 4 -22 17q-4 4 -17 25l-13 -5q7 -31 3 -64q-3 -19 -16 -19q-5 0 -8 1
q-18 10 -32 56l-12 -9q6 -57 19 -77q15 -29 55 -29q17 8 32 50l8 -5q34 -8 48.5 11t7.5 50q-9 31 -30 69z" />
    <glyph glyph-name="alefmaddaabovefinalarabic" unicode="&#x622;" horiz-adv-x="274" arabic-form="final" 
d="M287 0l-21 84h-94q-49 0 -61 48l-127 513l-88 -30l120 -486q15 -59 58.5 -94t106.5 -35h106zM84 727l-52 32q-23 -26 -44 -26q-18 0 -55 15q-38 16 -67 16q-40 0 -86 -42l52 -31q21 26 53 26q15 0 51 -16q36 -15 63 -15q39 0 85 41z" />
    <glyph glyph-name="alefhamzaabovefinalarabic" unicode="&#x623;" horiz-adv-x="274" arabic-form="final" 
d="M287 0l-21 84h-94q-49 0 -61 48l-127 513l-88 -30l120 -486q15 -59 58.5 -94t106.5 -35h106zM5 683l-7 34h-79l-5 20q-9 35 15 35q16 0 31 -15l15 28q-27 21 -51 21q-65 0 -47 -69l5 -20h-28l-13 -34h164z" />
    <glyph glyph-name="wawhamzaabovefinalarabic" unicode="&#x624;" horiz-adv-x="534" arabic-form="final" 
d="M546 0l-21 82h-109q-6 29 -16 71.5t-12 50.5q-58 234 -250 234q-101 0 -136 -74q-28 -63 -3 -160q21 -89 86 -144q67 -58 170 -60h78q5 -46 -20 -77t-70 -32q-72 -3 -166 35l65 -92q47 -26 123 -26q89 0 131 58q38 51 32 134h118zM293 204l29 -122h-88q-111 0 -141 122
q-39 151 66 151q62 0 95 -50q21 -29 39 -101zM240 492l-13 52h-145l-6 25q-16 61 35 61q27 0 53 -26l29 39q-46 37 -87 37q-52 0 -73.5 -33.5t-8.5 -85.5l4 -17h-44l-29 -52h285z" />
    <glyph glyph-name="alefhamzabelowfinalarabic" unicode="&#x625;" horiz-adv-x="274" arabic-form="final" 
d="M287 0l-21 84h-94q-49 0 -61 48l-127 513l-88 -30l120 -486q15 -59 58.5 -94t106.5 -35h106zM224 -195l-9 35h-79l-4 19q-9 35 15 35q16 0 31 -15l15 28q-27 21 -52 21q-63 0 -45 -69l4 -19h-29l-12 -35h165z" />
    <glyph glyph-name="yehhamzaabovefinalarabic" unicode="&#x626;" horiz-adv-x="555" arabic-form="final" 
d="M182 355l-14 57h-165l-7 31q-16 66 41 66q30 0 58 -28l34 44q-51 42 -100 42q-57 0 -81 -38t-9 -97l5 -20h-50l-34 -57h322zM555 0l-21 82h-41q-47 0 -76 18t-60 66l-21 -90q46 -69 142 -76q11 -71 -43 -93q-27 -13 -100 -13q-82 -1 -138 47t-77 135q-26 100 0 234
l-92 -66q-16 -96 6 -186q27 -111 104 -176q86 -74 218 -74q114 0 167 46q61 51 32 146z" />
    <glyph glyph-name="yehhamzaaboveinitialarabic" unicode="&#x626;" horiz-adv-x="242" arabic-form="initial" 
d="M79 689q-51 42 -99 42q-58 0 -82 -38t-9 -96l5 -20h-30l-34 -58h282l-14 58h-143l-8 29q-16 67 41 67q30 0 58 -28zM160 177l-68 274l-87 -28l60 -239q25 -102 -73 -102h-23l20 -82h29q84 0 123 50q39 49 19 127z" />
    <glyph glyph-name="yehhamzaabovemedialarabic" unicode="&#x626;" horiz-adv-x="389" arabic-form="medial" 
d="M118 689q-51 42 -99 42q-57 0 -81.5 -38t-9.5 -96l5 -20h-34l-34 -58h292l-14 58h-148l-8 29q-16 67 39 67q31 0 59 -28zM401 0l-21 82h-54q-98 0 -124 99l-67 270l-87 -28l60 -239q26 -102 -75 -102h-65l20 -82h72q90 0 128 53q65 -53 153 -53h60z" />
    <glyph glyph-name="aleffinalarabic" unicode="&#x627;" horiz-adv-x="274" arabic-form="final" 
d="M287 0l-21 84h-94q-49 0 -61 48l-127 513l-88 -30l120 -486q15 -59 58.5 -94t106.5 -35h106z" />
    <glyph glyph-name="behfinalarabic" unicode="&#x628;" horiz-adv-x="924" arabic-form="final" 
d="M936 0l-21 84h-41q-123 0 -156 129l-59 238l-87 -25l61 -244q24 -98 -75 -98h-337q-100 0 -124 98l-47 187l-69 -96l25 -101q19 -77 80.5 -124.5t142.5 -47.5h355q109 0 141 74q62 -74 164 -74h47zM511 -141q-5 20 -24.5 35.5t-40.5 15.5t-32 -15.5t-6 -35.5
q5 -21 24 -36.5t40 -15.5t32.5 15.5t6.5 36.5z" />
    <glyph glyph-name="behinitialarabic" unicode="&#x628;" horiz-adv-x="290" arabic-form="initial" 
d="M208 177l-68 274l-87 -28l60 -239q25 -102 -74 -102h-71l20 -82h77q85 0 124 50q39 49 19 127zM227 -140q-5 21 -24 36t-40 15q-20 0 -32 -15t-7 -36t24.5 -36.5t39.5 -15.5q21 0 32.5 15.5t6.5 36.5z" />
    <glyph glyph-name="behmedialarabic" unicode="&#x628;" horiz-adv-x="389" arabic-form="medial" 
d="M401 0l-21 82h-54q-98 0 -124 99l-67 270l-87 -28l60 -239q26 -102 -75 -102h-65l20 -82h72q90 0 128 53q65 -53 153 -53h60zM293 -141q-5 20 -24 35.5t-40 15.5t-32.5 -15.5t-6.5 -35.5q5 -21 24.5 -36.5t40.5 -15.5t32 15.5t6 36.5z" />
    <glyph glyph-name="tehmarbutafinalarabic" unicode="&#x629;" horiz-adv-x="589" arabic-form="final" 
d="M247 592q-5 21 -24.5 36t-40.5 15t-32 -15t-6 -36t24 -36.5t40 -15.5t32.5 15.5t6.5 36.5zM113 592q-5 21 -24.5 36t-41.5 15q-21 0 -32.5 -15t-6.5 -36t24.5 -36.5t40.5 -15.5q22 0 33.5 15.5t6.5 36.5zM601 0l-21 82h-60q-98 0 -123 102l-67 267h-203q-189 0 -135 -222
q57 -229 248 -229q113 0 129 70q49 -70 167 -70h65zM254 374l36 -145q19 -73 7 -107q-12 -40 -72 -40q-59 0 -92 40q-28 34 -47 107q-18 74 -6 106q12 39 72 39h102z" />
    <glyph glyph-name="tehfinalarabic" unicode="&#x62a;" horiz-adv-x="924" arabic-form="final" 
d="M420 439q-5 21 -24.5 36.5t-40.5 15.5q-20 0 -31.5 -15.5t-6.5 -36.5t24 -36.5t40 -15.5t32.5 15t6.5 37zM286 439q-5 21 -24.5 36.5t-40.5 15.5t-32 -15.5t-6 -36.5q5 -22 24 -37t40 -15t32.5 15t6.5 37zM936 0l-21 84h-41q-123 0 -156 129l-59 238l-87 -25l61 -244
q24 -98 -75 -98h-337q-100 0 -124 98l-47 187l-69 -96l25 -101q19 -77 80.5 -124.5t142.5 -47.5h355q109 0 141 74q62 -74 164 -74h47z" />
    <glyph glyph-name="tehinitialarabic" unicode="&#x62a;" horiz-adv-x="290" arabic-form="initial" 
d="M112 592q-5 21 -24 36t-41 15q-21 0 -32.5 -15t-6.5 -36t24.5 -36.5t40.5 -15.5q22 0 33 15.5t6 36.5zM-22 592q-5 21 -24 36t-40 15t-32.5 -15t-6.5 -36t24.5 -36.5t40.5 -15.5t32 15.5t6 36.5zM208 177l-68 274l-87 -28l60 -239q25 -102 -74 -102h-71l20 -82h77
q85 0 124 50q39 49 19 127z" />
    <glyph glyph-name="tehmedialarabic" unicode="&#x62a;" horiz-adv-x="389" arabic-form="medial" 
d="M168 592q-5 21 -24.5 36t-40.5 15q-20 0 -31.5 -15t-6.5 -36t24.5 -36.5t39.5 -15.5q21 0 32.5 15.5t6.5 36.5zM34 592q-5 21 -24 36t-40 15q-22 0 -32.5 -15t-5.5 -36t24 -36.5t40 -15.5q20 0 31.5 15.5t6.5 36.5zM401 0l-21 82h-54q-98 0 -124 99l-67 270l-87 -28
l60 -239q26 -102 -75 -102h-65l20 -82h72q90 0 128 53q65 -53 153 -53h60z" />
    <glyph glyph-name="thehfinalarabic" unicode="&#x62b;" horiz-adv-x="924" arabic-form="final" 
d="M325 555q-5 21 -24.5 36t-40.5 15t-32.5 -15t-6.5 -36t24.5 -36.5t40.5 -15.5t32.5 15.5t6.5 36.5zM420 439q-5 21 -24.5 36.5t-40.5 15.5q-20 0 -31.5 -15.5t-6.5 -36.5t24 -36.5t40 -15.5t32.5 15t6.5 37zM286 439q-5 21 -24.5 36.5t-40.5 15.5t-32 -15.5t-6 -36.5
q5 -22 24 -37t40 -15t32.5 15t6.5 37zM936 0l-21 84h-41q-123 0 -156 129l-59 238l-87 -25l61 -244q24 -98 -75 -98h-337q-100 0 -124 98l-47 187l-69 -96l25 -101q19 -77 80.5 -124.5t142.5 -47.5h355q109 0 141 74q62 -74 164 -74h47z" />
    <glyph glyph-name="thehinitialarabic" unicode="&#x62b;" horiz-adv-x="290" arabic-form="initial" 
d="M28 708q-5 21 -23.5 36.5t-39.5 15.5t-32.5 -15.5t-6.5 -36.5t24.5 -36t40.5 -15t31.5 14.5t5.5 36.5zM125 592q-5 21 -24.5 36t-40.5 15q-22 0 -32.5 -15t-5.5 -36t24 -36.5t40 -15.5t32.5 15.5t6.5 36.5zM-9 592q-5 21 -24.5 36t-40.5 15t-32.5 -15t-6.5 -36
t24.5 -36.5t40.5 -15.5t32.5 15.5t6.5 36.5zM208 177l-68 274l-87 -28l60 -239q25 -102 -74 -102h-71l20 -82h77q85 0 124 50q39 49 19 127z" />
    <glyph glyph-name="thehmedialarabic" unicode="&#x62b;" horiz-adv-x="389" arabic-form="medial" 
d="M75 708q-5 21 -24.5 36.5t-40.5 15.5q-20 0 -31 -15.5t-6 -36.5t23.5 -36t39.5 -15t32.5 14.5t6.5 36.5zM171 592q-5 21 -24.5 36t-40.5 15t-32.5 -15t-6.5 -36t24.5 -36.5t40.5 -15.5t32.5 15.5t6.5 36.5zM36 592q-5 21 -24 36t-39 15q-22 0 -33 -15t-6 -36t24 -36.5
t41 -15.5q20 0 31 15.5t6 36.5zM401 0l-21 82h-54q-98 0 -124 99l-67 270l-87 -28l60 -239q26 -102 -75 -102h-65l20 -82h72q90 0 128 53q65 -53 153 -53h60z" />
    <glyph glyph-name="jeemfinalarabic" unicode="&#x62c;" horiz-adv-x="717" arabic-form="final" 
d="M729 0l-21 84h-27q-114 0 -187 100q-24 37 -67.5 105.5t-54.5 85.5q-81 102 -213 105q-104 2 -183 -100l69 -53q58 72 134 72q92 0 163 -104h-110q-111 0 -168 -68q-56 -68 -27 -179q25 -106 118 -173q91 -67 198 -67q88 0 146 38l-25 101q-53 -56 -141 -56
q-70 0 -126 44t-73 113q-19 73 14 118.5t105 45.5h136q98 -212 299 -212h41zM348 57q-5 20 -24 35.5t-40 15.5t-32.5 -15.5t-6.5 -35.5q5 -21 24 -36.5t40 -15.5t32.5 15.5t6.5 36.5z" />
    <glyph glyph-name="jeeminitialarabic" unicode="&#x62c;" horiz-adv-x="557" arabic-form="initial" 
d="M520 0l-30 118q-36 146 -95 223q-86 110 -237 110q-121 0 -196 -98l83 -63q51 77 134 77q98 0 152 -84q34 -52 62 -165l9 -36h-434l20 -82h532zM355 -140q-5 21 -24 36t-40 15t-32.5 -15t-6.5 -36t24 -36.5t40 -15.5t32.5 15.5t6.5 36.5z" />
    <glyph glyph-name="jeemmedialarabic" unicode="&#x62c;" horiz-adv-x="646" arabic-form="medial" 
d="M658 0l-21 84h-124l-9 34q-36 147 -96 223q-86 110 -237 110q-120 0 -195 -98l83 -63q51 77 133 77q99 0 153 -84q34 -52 62 -165l9 -36h-448l20 -82h670zM369 -140q-5 21 -24 36t-40 15t-33 -15t-7 -36t24.5 -36.5t40.5 -15.5t32.5 15.5t6.5 36.5z" />
    <glyph glyph-name="hahfinalarabic" unicode="&#x62d;" horiz-adv-x="717" arabic-form="final" 
d="M729 0l-21 84h-27q-114 0 -187 100q-24 37 -67.5 105.5t-54.5 85.5q-81 102 -213 105q-104 2 -183 -100l69 -53q58 72 134 72q92 0 163 -104h-110q-111 0 -168 -68q-56 -68 -27 -179q25 -106 118 -173q91 -67 198 -67q88 0 146 38l-25 101q-53 -56 -141 -56
q-70 0 -126 44t-73 113q-19 73 14 118.5t105 45.5h136q98 -212 299 -212h41z" />
    <glyph glyph-name="hahinitialarabic" unicode="&#x62d;" horiz-adv-x="557" arabic-form="initial" 
d="M520 0l-30 118q-36 146 -95 223q-86 110 -237 110q-121 0 -196 -98l83 -63q51 77 134 77q98 0 152 -84q34 -52 62 -165l9 -36h-434l20 -82h532z" />
    <glyph glyph-name="hahmedialarabic" unicode="&#x62d;" horiz-adv-x="646" arabic-form="medial" 
d="M658 0l-21 84h-124l-9 34q-36 147 -96 223q-86 110 -237 110q-120 0 -195 -98l83 -63q51 77 133 77q99 0 153 -84q34 -52 62 -165l9 -36h-448l20 -82h670z" />
    <glyph glyph-name="khahfinalarabic" unicode="&#x62e;" horiz-adv-x="717" arabic-form="final" 
d="M182 621q-5 21 -24.5 36.5t-40.5 15.5q-22 0 -33.5 -15.5t-6.5 -36.5t24.5 -36.5t41.5 -15.5q21 0 32.5 15.5t6.5 36.5zM729 0l-21 84h-27q-114 0 -187 100q-24 37 -67.5 105.5t-54.5 85.5q-81 102 -213 105q-104 2 -183 -100l69 -53q58 72 134 72q92 0 163 -104h-110
q-111 0 -168 -68q-56 -68 -27 -179q25 -106 118 -173q91 -67 198 -67q88 0 146 38l-25 101q-53 -56 -141 -56q-70 0 -126 44t-73 113q-19 73 14 118.5t105 45.5h136q98 -212 299 -212h41z" />
    <glyph glyph-name="khahinitialarabic" unicode="&#x62e;" horiz-adv-x="557" arabic-form="initial" 
d="M175 592q-5 21 -24 36t-40 15q-22 0 -33.5 -15t-6.5 -36t24.5 -36.5t41.5 -15.5q21 0 32 15.5t6 36.5zM520 0l-30 118q-36 146 -95 223q-86 110 -237 110q-121 0 -196 -98l83 -63q51 77 134 77q98 0 152 -84q34 -52 62 -165l9 -36h-434l20 -82h532z" />
    <glyph glyph-name="khahmedialarabic" unicode="&#x62e;" horiz-adv-x="646" arabic-form="medial" 
d="M189 592q-5 21 -24.5 36t-40.5 15q-22 0 -33.5 -15t-6.5 -36t24.5 -36.5t41.5 -15.5q21 0 32.5 15.5t6.5 36.5zM658 0l-21 84h-124l-9 34q-36 147 -96 223q-86 110 -237 110q-120 0 -195 -98l83 -63q51 77 133 77q99 0 153 -84q34 -52 62 -165l9 -36h-448l20 -82h670z
" />
    <glyph glyph-name="dalfinalarabic" unicode="&#x62f;" horiz-adv-x="569" arabic-form="final" 
d="M582 0l-21 84h-136l-49 195q-20 78 -86 124q-68 47 -155 47q-67 0 -120 -59l27 -108q27 87 113 87q103 0 129 -98l47 -190h-246l-36 -82h533z" />
    <glyph glyph-name="thalfinalarabic" unicode="&#x630;" horiz-adv-x="569" arabic-form="final" 
d="M164 592q-5 22 -24 37.5t-40 15.5t-32.5 -15.5t-6.5 -37.5q5 -21 24.5 -36.5t40.5 -15.5t32 15.5t6 36.5zM582 0l-21 84h-136l-49 195q-20 78 -86 124q-68 47 -155 47q-67 0 -120 -59l27 -108q27 87 113 87q103 0 129 -98l47 -190h-246l-36 -82h533z" />
    <glyph glyph-name="rehfinalarabic" unicode="&#x631;" horiz-adv-x="481" arabic-form="final" 
d="M493 0l-21 84h-141l-92 367l-88 -28l99 -396q16 -63 -9.5 -99.5t-86.5 -36.5q-85 0 -161 38l68 -94q50 -27 113 -27q95 0 141.5 52t35.5 140h142z" />
    <glyph glyph-name="zainfinalarabic" unicode="&#x632;" horiz-adv-x="481" arabic-form="final" 
d="M201 592q-5 22 -24 37.5t-40 15.5t-32.5 -15.5t-6.5 -37.5q5 -21 24.5 -36.5t40.5 -15.5t32 15.5t6 36.5zM493 0l-21 84h-141l-92 367l-88 -28l99 -396q16 -63 -9.5 -99.5t-86.5 -36.5q-85 0 -161 38l68 -94q50 -27 113 -27q95 0 141.5 52t35.5 140h142z" />
    <glyph glyph-name="seenfinalarabic" unicode="&#x633;" horiz-adv-x="1291" arabic-form="final" 
d="M1302 0l-21 84h-108l-92 367l-88 -28l85 -339h-200l-81 323l-88 -28l74 -295h-200l-69 273l-87 -29l74 -298q17 -68 -17.5 -102t-120.5 -34q-105 0 -162 50t-86 167l-22 87l-87 -28q41 -174 106 -251q92 -111 271 -111q127 0 182 48t38 144h699z" />
    <glyph glyph-name="seeninitialarabic" unicode="&#x633;" horiz-adv-x="829" arabic-form="initial" 
d="M746 172l-70 281l-88 -29l60 -242q24 -98 -73 -98h-102l-81 324l-88 -28l74 -298h-196l-70 282l-89 -27l64 -253h-117l20 -84h611q86 0 125 47t20 125z" />
    <glyph glyph-name="seenmedialarabic" unicode="&#x633;" horiz-adv-x="890" arabic-form="medial" 
d="M899 0l-21 84h-108l-92 367l-88 -28l85 -339h-200l-81 323l-88 -28l74 -295h-198l-70 280l-89 -27l64 -253h-117l20 -84h909z" />
    <glyph glyph-name="sheenfinalarabic" unicode="&#x634;" horiz-adv-x="1291" arabic-form="final" 
d="M1302 0l-21 84h-108l-92 367l-88 -28l85 -339h-200l-81 323l-88 -28l74 -295h-200l-69 273l-87 -29l74 -298q17 -68 -17.5 -102t-120.5 -34q-105 0 -162 50t-86 167l-22 87l-87 -28q41 -174 106 -251q92 -111 271 -111q127 0 182 48t38 144h699zM818 592
q-5 22 -24.5 37.5t-40.5 15.5q-22 0 -33 -15.5t-6 -37.5q5 -21 24 -36.5t41 -15.5q21 0 32.5 15.5t6.5 36.5zM683 592q-5 22 -24.5 37.5t-40.5 15.5t-32 -15.5t-6 -37.5q5 -21 24 -36.5t40 -15.5t32.5 15.5t6.5 36.5zM722 708q-5 21 -24.5 36.5t-40.5 15.5t-32.5 -15.5
t-6.5 -36.5q5 -20 24.5 -35.5t40.5 -15.5t32.5 15.5t6.5 35.5z" />
    <glyph glyph-name="sheeninitialarabic" unicode="&#x634;" horiz-adv-x="829" arabic-form="initial" 
d="M746 172l-70 281l-88 -29l60 -242q24 -98 -73 -98h-102l-81 324l-88 -28l74 -298h-196l-70 282l-89 -27l64 -253h-117l20 -84h611q86 0 125 47t20 125zM278 592q-5 22 -24.5 37.5t-40.5 15.5q-22 0 -32.5 -15.5t-5.5 -37.5q5 -21 24 -36.5t40 -15.5t32.5 15.5t6.5 36.5z
M412 592q-5 22 -24.5 37.5t-40.5 15.5t-32 -15.5t-6 -37.5q5 -21 24 -36.5t40 -15.5t32.5 15.5t6.5 36.5zM317 708q-5 21 -24.5 36.5t-40.5 15.5t-32.5 -15.5t-6.5 -36.5q5 -20 24.5 -35.5t40.5 -15.5t32.5 15.5t6.5 35.5z" />
    <glyph glyph-name="sheenmedialarabic" unicode="&#x634;" horiz-adv-x="890" arabic-form="medial" 
d="M899 0l-21 84h-108l-92 367l-88 -28l85 -339h-200l-81 323l-88 -28l74 -295h-198l-70 280l-89 -27l64 -253h-117l20 -84h909zM415 592q-5 22 -24.5 37.5t-40.5 15.5q-22 0 -33 -15.5t-6 -37.5q5 -21 24 -36.5t41 -15.5q21 0 32.5 15.5t6.5 36.5zM280 592
q-5 22 -24.5 37.5t-40.5 15.5t-32 -15.5t-6 -37.5q5 -21 24 -36.5t40 -15.5t32.5 15.5t6.5 36.5zM319 708q-5 21 -24.5 36.5t-40.5 15.5t-32.5 -15.5t-6.5 -36.5q5 -20 24.5 -35.5t40.5 -15.5t32.5 15.5t6.5 35.5z" />
    <glyph glyph-name="sadfinalarabic" unicode="&#x635;" horiz-adv-x="1274" arabic-form="final" 
d="M1283 0l-21 84h-85q-34 161 -107 247q-104 119 -249 115q-166 -5 -224 -148q-30 -73 -29 -156l-54 215l-87 -29l74 -298q17 -68 -17.5 -102t-120.5 -34q-105 0 -162 50t-86 167l-22 87l-87 -28q41 -174 106 -251q92 -111 271 -111q127 0 182 48t38 144h680zM1081 84h-446
q-16 84 41 173q63 102 169 102q87 0 151 -72q53 -62 75 -154q7 -23 10 -49z" />
    <glyph glyph-name="sadinitialarabic" unicode="&#x635;" horiz-adv-x="840" arabic-form="initial" 
d="M790 0q-5 23 -12 60l-14 67q-33 130 -97 204q-104 119 -249 115q-166 -5 -224 -148q-29 -70 -29 -148l-53 214l-89 -27l64 -253h-117l20 -84h800zM678 84h-446q-16 84 41 173q63 102 169 102q86 0 151 -72q53 -62 75 -154q7 -23 10 -49z" />
    <glyph glyph-name="sadmedialarabic" unicode="&#x635;" horiz-adv-x="869" arabic-form="medial" 
d="M878 0l-21 84h-85q-34 161 -107 247q-104 119 -249 115q-166 -5 -224 -148q-28 -66 -29 -140l-51 206l-89 -27l64 -253h-117l20 -84h888zM676 84h-446q-16 84 41 173q63 102 169 102q86 0 151 -72q53 -62 75 -154q7 -23 10 -49z" />
    <glyph glyph-name="dadfinalarabic" unicode="&#x636;" horiz-adv-x="1274" arabic-form="final" 
d="M1283 0l-21 84h-85q-34 161 -107 247q-104 119 -249 115q-166 -5 -224 -148q-30 -73 -29 -156l-54 215l-87 -29l74 -298q17 -68 -17.5 -102t-120.5 -34q-105 0 -162 50t-86 167l-22 87l-87 -28q41 -174 106 -251q92 -111 271 -111q127 0 182 48t38 144h680zM1081 84h-446
q-16 84 41 173q63 102 169 102q87 0 151 -72q53 -62 75 -154q7 -23 10 -49zM847 593q-5 21 -25 36.5t-42 15.5q-23 0 -35 -15.5t-7 -36.5q5 -22 25 -37t43 -15q22 0 34 15t7 37z" />
    <glyph glyph-name="dadinitialarabic" unicode="&#x636;" horiz-adv-x="840" arabic-form="initial" 
d="M790 0q-5 23 -12 60l-14 67q-33 130 -97 204q-104 119 -249 115q-166 -5 -224 -148q-29 -70 -29 -148l-53 214l-89 -27l64 -253h-117l20 -84h800zM678 84h-446q-16 84 41 173q63 102 169 102q86 0 151 -72q53 -62 75 -154q7 -23 10 -49zM444 593q-5 21 -25 36.5t-42 15.5
q-23 0 -35 -15.5t-7 -36.5q5 -22 25 -37t43 -15q22 0 34 15t7 37z" />
    <glyph glyph-name="dadmedialarabic" unicode="&#x636;" horiz-adv-x="869" arabic-form="medial" 
d="M878 0l-21 84h-85q-34 161 -107 247q-104 119 -249 115q-166 -5 -224 -148q-28 -66 -29 -140l-51 206l-89 -27l64 -253h-117l20 -84h888zM676 84h-446q-16 84 41 173q63 102 169 102q86 0 151 -72q53 -62 75 -154q7 -23 10 -49zM442 593q-5 21 -25 36.5t-42 15.5
q-23 0 -35 -15.5t-7 -36.5q5 -22 25 -37t43 -15q22 0 34 15t7 37z" />
    <glyph glyph-name="tahfinalarabic" unicode="&#x637;" horiz-adv-x="882" arabic-form="final" 
d="M894 0l-21 84h-99q-34 164 -105 247q-104 119 -250 115q-173 -5 -231 -161l-85 342l-88 -29l129 -514h-75l-20 -84h845zM681 84h-446q-2 96 48 179q64 101 165 97q84 -5 143 -67q59 -71 81 -164q6 -23 9 -45z" />
    <glyph glyph-name="tahinitialarabic" unicode="&#x637;" horiz-adv-x="775" arabic-form="initial" 
d="M734 0q-3 10 -16 69q-9 47 -15 69q-30 119 -92 193q-104 119 -249 115q-174 -4 -232 -161l-85 342l-87 -29l128 -514h-122l20 -84h750zM624 84h-447q-2 97 49 179q62 101 164 97q83 -5 144 -67q58 -72 80 -164q4 -15 10 -45z" />
    <glyph glyph-name="tahmedialarabic" unicode="&#x637;" horiz-adv-x="823" arabic-form="medial" 
d="M835 0l-21 84h-98q-36 165 -107 247q-103 119 -247 115q-175 -5 -232 -161l-85 342l-87 -29l128 -514h-122l20 -84h851zM622 84h-445q-3 97 49 179q61 101 162 97q85 -4 146 -67q58 -72 80 -164q7 -25 8 -45z" />
    <glyph glyph-name="zahfinalarabic" unicode="&#x638;" horiz-adv-x="882" arabic-form="final" 
d="M430 592q-5 22 -24.5 37.5t-40.5 15.5q-20 0 -31.5 -15.5t-6.5 -37.5q5 -21 24.5 -36.5t39.5 -15.5q21 0 32.5 15.5t6.5 36.5zM894 0l-21 84h-99q-34 164 -105 247q-104 119 -250 115q-173 -5 -231 -161l-85 342l-88 -29l129 -514h-75l-20 -84h845zM681 84h-446
q-2 96 48 179q64 101 165 97q84 -5 143 -67q59 -71 81 -164q6 -23 9 -45z" />
    <glyph glyph-name="zahinitialarabic" unicode="&#x638;" horiz-adv-x="775" arabic-form="initial" 
d="M372 592q-5 22 -24 37.5t-40 15.5t-32.5 -15.5t-6.5 -37.5q5 -21 24.5 -36.5t40.5 -15.5t32 15.5t6 36.5zM734 0q-3 10 -16 69q-9 47 -15 69q-30 119 -92 193q-104 119 -249 115q-174 -4 -232 -161l-85 342l-87 -29l128 -514h-122l20 -84h750zM624 84h-447q-2 97 49 179
q61 101 164 97q83 -5 144 -67q58 -72 80 -164q4 -15 10 -45z" />
    <glyph glyph-name="zahmedialarabic" unicode="&#x638;" horiz-adv-x="823" arabic-form="medial" 
d="M371 592q-5 22 -23.5 37.5t-41.5 15.5q-21 0 -32 -15.5t-6 -37.5q5 -21 24 -36.5t40 -15.5q23 0 33.5 15t5.5 37zM835 0l-21 84h-98q-36 165 -107 247q-103 119 -247 115q-175 -5 -232 -161l-85 342l-87 -29l128 -514h-122l20 -84h851zM622 84h-445q-3 97 49 179
q61 101 162 97q85 -4 146 -67q58 -72 80 -164q7 -25 8 -45z" />
    <glyph glyph-name="ainfinalarabic" unicode="&#x639;" horiz-adv-x="540" arabic-form="final" 
d="M552 0l-21 84h-55q-69 0 -88 73l-12 50h81l-70 83h-177l-5 21q-17 68 42 68q41 0 74 -35l47 62q-61 55 -132 55q-76 0 -108 -47q-30 -48 -12 -114l8 -33q-59 -30 -81.5 -90.5t-3.5 -138.5q25 -102 113 -166q89 -64 201 -64q89 0 147 39l-27 103q-40 -40 -71 -50
q-24 -8 -70 -8q-75 0 -127 38.5t-69 107.5q-19 75 13 122t105 47h29l23 -91q29 -116 136 -116h110z" />
    <glyph glyph-name="aininitialarabic" unicode="&#x639;" horiz-adv-x="561" arabic-form="initial" 
d="M524 0l-92 84h-257l-47 187q-11 44 8 72t63 28q45 0 92 -43l55 64q-76 59 -156 59q-94 0 -135 -57q-39 -56 -18 -139l43 -171h-110l20 -84h534z" />
    <glyph glyph-name="ainmedialarabic" unicode="&#x639;" horiz-adv-x="530" arabic-form="medial" 
d="M542 0l-21 84h-345l-47 187q-11 43 9 71.5t62 28.5q46 0 93 -43l54 64q-76 59 -156 59q-94 0 -135 -56q-39 -56 -18 -140l43 -171h-113l20 -84h554z" />
    <glyph glyph-name="ghainfinalarabic" unicode="&#x63a;" horiz-adv-x="540" arabic-form="final" 
d="M252 592q-5 21 -24.5 36t-40.5 15t-32.5 -15t-6.5 -36t24.5 -36.5t40.5 -15.5t32.5 15.5t6.5 36.5zM552 0l-21 84h-55q-69 0 -88 73l-12 50h81l-70 83h-177l-5 21q-17 68 42 68q41 0 74 -35l47 62q-61 55 -132 55q-76 0 -108 -47q-30 -48 -12 -114l8 -33
q-59 -30 -81.5 -90.5t-3.5 -138.5q25 -102 113 -166q89 -64 201 -64q89 0 147 39l-27 103q-40 -40 -71 -50q-24 -8 -70 -8q-75 0 -127 38.5t-69 107.5q-19 75 13 122t105 47h29l23 -91q29 -116 136 -116h110z" />
    <glyph glyph-name="ghaininitialarabic" unicode="&#x63a;" horiz-adv-x="561" arabic-form="initial" 
d="M199 592q-5 22 -24.5 37.5t-40.5 15.5t-32 -15.5t-6 -37.5q5 -21 24 -36.5t40 -15.5t32.5 15.5t6.5 36.5zM524 0l-92 84h-257l-47 187q-11 44 8 72t63 28q45 0 92 -43l55 64q-76 59 -156 59q-94 0 -135 -57q-39 -56 -18 -139l43 -171h-110l20 -84h534z" />
    <glyph glyph-name="ghainmedialarabic" unicode="&#x63a;" horiz-adv-x="530" arabic-form="medial" 
d="M200 592q-5 22 -24.5 37.5t-40.5 15.5q-20 0 -31.5 -15.5t-6.5 -37.5q5 -21 24.5 -36.5t39.5 -15.5q21 0 32.5 15.5t6.5 36.5zM542 0l-21 84h-345l-47 187q-11 43 9 71.5t62 28.5q46 0 93 -43l54 64q-76 59 -156 59q-94 0 -135 -56q-39 -56 -18 -140l43 -171h-113l20 -84
h554z" />
    <glyph glyph-name="fehfinalarabic" unicode="&#x641;" horiz-adv-x="838" arabic-form="final" 
d="M479 592q-5 22 -24 37.5t-40 15.5t-32.5 -15.5t-6.5 -37.5q5 -21 24.5 -36.5t40.5 -15.5t32 15.5t6 36.5zM850 0l-21 82h-142q45 67 28 142q-21 96 -79 155q-69 72 -175 72q-104 0 -137 -72q-28 -60 -1 -155q20 -74 98 -140h-200q-100 0 -124 98l-47 187l-69 -96l25 -101
q19 -77 80.5 -124.5t142.5 -47.5h288q29 0 57 6q30 -6 59 -6h217zM484 367q49 0 85 -33t49 -86q12 -50 -3 -93q-17 -47 -62 -64q-53 16 -95 64q-37 45 -49 93q-13 52 6.5 85.5t68.5 33.5z" />
    <glyph glyph-name="fehinitialarabic" unicode="&#x641;" horiz-adv-x="494" arabic-form="initial" 
d="M161 592q-5 21 -24.5 36t-40.5 15t-32.5 -15t-6.5 -36t24.5 -36.5t40.5 -15.5t32.5 15.5t6.5 36.5zM418 157l-38 153q-16 65 -74 109q-64 51 -167 51q-89 0 -130 -43.5t-23 -116.5q21 -83 60 -117q49 -43 144 -43h135q12 -46 -17 -60q-15 -6 -68 -6h-272l20 -84h285
q90 0 124 31q43 37 21 126zM286 307l19 -77h-116q-60 0 -78 12q-18 13 -31 65q-10 40 10 59.5t70 19.5q107 0 126 -79z" />
    <glyph glyph-name="fehmedialarabic" unicode="&#x641;" horiz-adv-x="531" arabic-form="medial" 
d="M172 592q-5 22 -24.5 37.5t-40.5 15.5t-32.5 -15.5t-6.5 -37.5q5 -21 24.5 -36.5t40.5 -15.5t32.5 15.5t6.5 36.5zM544 0l-21 82h-143q44 67 29 142q-22 94 -80 155q-69 72 -174 72q-103 0 -138 -72q-26 -60 0 -155q20 -75 97 -142h-146l20 -82h221q30 0 57 6
q32 -6 61 -6h217zM176 367q49 0 86 -35t50 -88q12 -52 -2 -96q-17 -51 -63 -67q-52 16 -95 67q-37 43 -49 96q-13 53 6.5 88t66.5 35z" />
    <glyph glyph-name="qaffinalarabic" unicode="&#x642;" horiz-adv-x="684" arabic-form="final" 
d="M385 592q-5 21 -24.5 36t-40.5 15t-32.5 -15t-6.5 -36t24.5 -36.5t40.5 -15.5t32.5 15.5t6.5 36.5zM251 592q-5 21 -24.5 36t-41.5 15q-21 0 -32.5 -15t-6.5 -36t24.5 -36.5t40.5 -15.5q22 0 33.5 15.5t6.5 36.5zM696 0l-21 82h-92l-32 130q-26 98 -81 161
q-69 78 -175 78q-103 0 -136 -78q-25 -64 0 -161q53 -212 269 -212h82q24 -104 -147 -103q-110 0 -171 56q-60 55 -96 197l-77 -31q52 -161 122 -228q86 -83 243 -83q252 0 219 192h93zM489 84h-80q-65 0 -99 25q-39 30 -57 103q-39 156 63 156t141 -156z" />
    <glyph glyph-name="qafinitialarabic" unicode="&#x642;" horiz-adv-x="494" arabic-form="initial" 
d="M222 592q-5 21 -24.5 36t-39.5 15q-21 0 -32.5 -15t-6.5 -36t24.5 -36.5t40.5 -15.5q20 0 31.5 15.5t6.5 36.5zM88 592q-5 21 -24.5 36t-41.5 15q-20 0 -31 -15t-6 -36t23.5 -36.5t39.5 -15.5q22 0 33.5 15.5t6.5 36.5zM418 157l-38 153q-16 65 -74 109q-64 51 -167 51
q-89 0 -130 -43.5t-23 -116.5q21 -83 60 -117q49 -43 144 -43h135q12 -46 -17 -60q-15 -6 -68 -6h-272l20 -84h285q90 0 124 31q43 37 21 126zM286 307l19 -77h-116q-60 0 -78 12q-18 13 -31 65q-10 40 10 59.5t70 19.5q107 0 126 -79z" />
    <glyph glyph-name="qafmedialarabic" unicode="&#x642;" horiz-adv-x="531" arabic-form="medial" 
d="M236 592q-5 21 -24.5 36t-40.5 15t-32.5 -15t-6.5 -36t24.5 -36.5t40.5 -15.5t32.5 15.5t6.5 36.5zM102 592q-5 21 -24.5 36t-41.5 15q-21 0 -32 -15t-6 -36q4 -21 23.5 -36.5t40.5 -15.5q22 0 33.5 15.5t6.5 36.5zM544 0l-21 82h-143q44 67 29 142q-22 94 -80 155
q-69 72 -174 72q-103 0 -138 -72q-26 -60 0 -155q20 -75 97 -142h-146l20 -82h221q30 0 57 6q32 -6 61 -6h217zM176 367q49 0 86 -35t50 -88q12 -52 -2 -96q-17 -51 -63 -67q-52 16 -95 67q-37 43 -49 96q-13 53 6.5 88t66.5 35z" />
    <glyph glyph-name="kaffinalarabic" unicode="&#x643;" horiz-adv-x="919" arabic-form="final" 
d="M931 0l-21 84h-36q-123 0 -155 128l-108 433l-86 -28l108 -435q24 -98 -75 -98h-337q-100 0 -124 98l-47 187l-69 -96l25 -101q19 -77 80.5 -124.5t142.5 -47.5h355q109 0 140 70q64 -70 165 -70h42zM488 300l-15 58h-163l-7 29q-17 68 41 68q29 0 58 -28l33 43
q-51 42 -98 42q-58 0 -82.5 -38t-10.5 -96l5 -20h-49l-33 -58h321z" />
    <glyph glyph-name="kafinitialarabic" unicode="&#x643;" horiz-adv-x="592" arabic-form="initial" 
d="M555 0q-44 171 -51 191q-37 103 -124 165q-87 63 -190 63q-22 0 -43 -3l159 227h-124l-229 -324l79 -61q48 78 156 78q83 0 146 -48q47 -36 72 -97q14 -37 31 -109h-469l20 -82h567z" />
    <glyph glyph-name="kafmedialarabic" unicode="&#x643;" horiz-adv-x="665" arabic-form="medial" 
d="M678 0l-21 84h-122q-11 48 -23 85q-36 110 -122 180t-200 70q-22 0 -43 -3l159 227h-124l-229 -324l79 -61q48 78 156 78q83 0 146 -48q47 -36 72 -97q14 -37 31 -109h-469l20 -82h690z" />
    <glyph glyph-name="lamfinalarabic" unicode="&#x644;" horiz-adv-x="733" arabic-form="final" 
d="M745 0l-21 84h-141l-140 559l-88 -29l147 -589q18 -73 -21 -104q-33 -24 -118 -24q-107 0 -165 56q-55 54 -92 197l-87 -31q52 -156 127 -228q88 -83 238 -83q125 0 179.5 48t39.5 144h142z" />
    <glyph glyph-name="laminitialarabic" unicode="&#x644;" horiz-adv-x="277" arabic-form="initial" 
d="M195 177l-116 466l-87 -28l106 -429q26 -102 -72 -102h-58l20 -84h64q85 0 124 50t19 127z" />
    <glyph glyph-name="lammedialarabic" unicode="&#x644;" horiz-adv-x="402" arabic-form="medial" 
d="M415 0l-21 84h-60q-98 0 -123 97l-115 464l-88 -30l107 -429q25 -102 -73 -102h-74l20 -84h81q91 0 127 54q66 -54 153 -54h66z" />
    <glyph glyph-name="meemfinalarabic" unicode="&#x645;" horiz-adv-x="828" arabic-form="final" 
d="M840 0l-21 84h-22q-71 0 -108 40q-34 34 -52 107q-24 95 -76 150q-67 70 -171 70h-236q-106 0 -149 -41q-46 -49 -18 -159l110 -445l88 28l-104 417q-18 68 9 92q22 21 104 21h54q-17 -51 4 -133q22 -90 78 -149q66 -67 169 -67t135 71q62 -86 178 -86h28zM543 231
q33 -133 -65 -133t-131 133q-35 137 64 137q97 0 132 -137z" />
    <glyph glyph-name="meeminitialarabic" unicode="&#x645;" horiz-adv-x="549" arabic-form="initial" 
d="M458 214q-22 91 -78 148q-66 67 -168 67q-104 0 -137 -67q-26 -58 -4 -148l8 -32q25 -100 -73 -100h-38l20 -82h45q98 0 133 53q67 -53 153 -53q102 0 135 68q26 57 4 146zM363 214q33 -133 -65 -133q-99 0 -132 133q-33 134 66 134q98 0 131 -134z" />
    <glyph glyph-name="meemmedialarabic" unicode="&#x645;" horiz-adv-x="665" arabic-form="medial" 
d="M674 0l-21 84l-20 -2q-106 0 -147 98q-37 91 -89 130q-59 45 -156 45q-177 0 -158 -175q12 -96 -94 -96h-26l20 -84h32q79 0 111 50q34 -57 93 -88.5t128 -31.5q72 0 115.5 35t45.5 98q63 -63 153 -63h13zM399 143q33 -133 -72 -133q-106 0 -139 133t73 133
q105 0 138 -133z" />
    <glyph glyph-name="noonfinalarabic" unicode="&#x646;" horiz-adv-x="754" arabic-form="final" 
d="M308 282q-5 21 -24.5 36t-40.5 15t-32 -15t-6 -36t24 -36.5t40 -15.5t32.5 15.5t6.5 36.5zM766 0l-21 84h-162l-69 273l-87 -29l74 -298q17 -68 -17.5 -102t-120.5 -34q-105 0 -162 50t-86 167l-22 87l-87 -28q41 -174 106 -251q92 -111 271 -111q127 0 182 48t38 144
h163z" />
    <glyph glyph-name="nooninitialarabic" unicode="&#x646;" horiz-adv-x="290" arabic-form="initial" 
d="M45 592q-5 22 -24.5 37.5t-39.5 15.5t-31.5 -15.5t-6.5 -37.5q5 -21 24 -36.5t39 -15.5q21 0 32.5 15.5t6.5 36.5zM208 177l-68 274l-87 -28l60 -239q25 -102 -74 -102h-71l20 -82h77q85 0 124 50q39 49 19 127z" />
    <glyph glyph-name="noonmedialarabic" unicode="&#x646;" horiz-adv-x="389" arabic-form="medial" 
d="M102 592q-5 21 -24.5 36t-40.5 15t-32 -15t-6 -36q4 -21 23.5 -36.5t40.5 -15.5t32.5 15.5t6.5 36.5zM401 0l-21 82h-54q-98 0 -124 99l-67 270l-87 -28l60 -239q26 -102 -75 -102h-65l20 -82h72q90 0 128 53q65 -53 153 -53h60z" />
    <glyph glyph-name="hehfinalarabic" unicode="&#x647;" horiz-adv-x="589" arabic-form="final" 
d="M601 0l-21 82h-60q-98 0 -123 102l-67 267h-203q-189 0 -135 -222q57 -229 248 -229q113 0 129 70q49 -70 167 -70h65zM254 374l36 -145q19 -73 7 -107q-12 -40 -72 -40q-59 0 -92 40q-28 34 -47 107q-18 74 -6 106q12 39 72 39h102z" />
    <glyph glyph-name="hehinitialarabic" unicode="&#x647;" horiz-adv-x="552" arabic-form="initial" 
d="M515 0l-42 165q-36 146 -93 218q-84 103 -239 103h-120l-87 -84h216q107 0 158 -67q38 -49 68 -170l21 -81h-90q18 33 0 107q-15 63 -54 103q-48 52 -119 52q-72 0 -94 -52q-18 -39 -2 -103q24 -94 58 -107h-131l20 -84h530zM232 191q27 -109 -32 -109t-86 109
q-23 87 37 87q59 0 81 -87z" />
    <glyph glyph-name="hehmedialarabic" unicode="&#x647;" horiz-adv-x="694" arabic-form="medial" 
d="M706 0l-21 84h-103l-11 43q-28 113 -54 172q-32 69 -86 109q-85 63 -196 63q-112 0 -160 -86t-16 -209q14 -54 42 -92h-133l20 -84h718zM478 127l11 -43h-119q25 22 7 96q-20 76 -68 127q-60 64 -136 64q28 16 83 16q112 2 162 -86q26 -40 60 -174zM241 84q-36 0 -62 27
t-37 70q-10 42 1 78q12 35 45 35t63 -35q29 -34 40 -78q11 -43 -1.5 -70t-48.5 -27z" />
    <glyph glyph-name="wawfinalarabic" unicode="&#x648;" horiz-adv-x="534" arabic-form="final" 
d="M546 0l-21 82h-109q-6 29 -16 71.5t-12 50.5q-58 234 -250 234q-101 0 -136 -74q-28 -63 -3 -160q21 -89 86 -144q67 -58 170 -60h78q5 -46 -20 -77t-70 -32q-72 -3 -166 35l65 -92q47 -26 123 -26q89 0 131 58q38 51 32 134h118zM293 204l29 -122h-88q-111 0 -141 122
q-39 151 66 151q62 0 95 -50q21 -29 39 -101z" />
    <glyph glyph-name="alefmaksurafinalarabic" unicode="&#x649;" horiz-adv-x="555" arabic-form="final" 
d="M555 0l-21 82h-41q-47 0 -76 18t-60 66l-21 -90q46 -69 142 -76q11 -71 -43 -93q-27 -13 -100 -13q-82 -1 -138 47t-77 135q-26 100 0 234l-92 -66q-16 -96 6 -186q27 -111 104 -176q86 -74 218 -74q114 0 167 46q61 51 32 146z" />
    <glyph glyph-name="yehfinalarabic" unicode="&#x64a;" horiz-adv-x="555" arabic-form="final" 
d="M555 0l-21 82h-41q-47 0 -76 18t-60 66l-21 -90q46 -69 142 -76q11 -71 -43 -93q-27 -13 -100 -13q-82 -1 -138 47t-77 135q-26 100 0 234l-92 -66q-16 -96 6 -186q27 -111 104 -176q86 -74 218 -74q114 0 167 46q61 51 32 146zM507 -323q-5 20 -24.5 35.5t-40.5 15.5
q-22 0 -33 -15.5t-6 -35.5q5 -21 24 -36.5t41 -15.5q21 0 32.5 15.5t6.5 36.5zM372 -323q-5 21 -24.5 36t-40.5 15t-32.5 -15.5t-6.5 -35.5q5 -21 24.5 -36.5t40.5 -15.5q22 0 33 15.5t6 36.5z" />
    <glyph glyph-name="yehinitialarabic" unicode="&#x64a;" horiz-adv-x="290" arabic-form="initial" 
d="M208 177l-68 274l-87 -28l60 -239q25 -102 -74 -102h-71l20 -82h77q85 0 124 50q39 49 19 127zM266 -140q-5 21 -23.5 36t-39.5 15q-22 0 -34 -15t-7 -36t24.5 -36.5t41.5 -15.5q21 0 32 15.5t6 36.5zM131 -140q-5 21 -24 36t-39 15q-21 0 -33 -15t-7 -36t24.5 -36.5
t40.5 -15.5q20 0 31.5 15.5t6.5 36.5z" />
    <glyph glyph-name="yehmedialarabic" unicode="&#x64a;" horiz-adv-x="389" arabic-form="medial" 
d="M401 0l-21 82h-54q-98 0 -124 99l-67 270l-87 -28l60 -239q26 -102 -75 -102h-65l20 -82h72q90 0 128 53q65 -53 153 -53h60zM355 -140q-5 21 -24 36t-40 15t-32.5 -15t-6.5 -36t24 -36.5t40 -15.5t32.5 15.5t6.5 36.5zM221 -140q-5 21 -24 36t-40 15q-22 0 -33 -15
t-6 -36t24 -36.5t40 -15.5t32.5 15.5t6.5 36.5z" />
    <glyph glyph-name="lamalefmaddaaboveisolatedarabi" unicode="&#xfef5;" horiz-adv-x="557" arabic-form="isolated" 
d="M475 177l-118 475l-87 -28l110 -440q24 -100 -74 -100h-38l-130 520l-88 -28l123 -492h-101l-23 -84h284q84 0 123 50q39 49 19 127zM202 703l-52 32q-23 -26 -45 -26q-17 0 -55 15q-38 16 -66 16q-41 0 -86 -42l52 -31q21 26 52 26q15 0 51 -16q36 -15 63 -15
q40 0 86 41z" />
    <glyph glyph-name="lamalefmaddaabovefinalarabic" unicode="&#xfef6;" horiz-adv-x="668" arabic-form="final" 
d="M688 0l-21 84h-68q-100 0 -125 97l-116 466q-71 -19 -88 -23l110 -440q24 -100 -74 -100h-38l-130 520l-88 -28l123 -492h-101l-23 -84h196h88q90 0 128 53q64 -53 153 -53h74zM202 703l-52 32q-23 -26 -45 -26q-17 0 -55 15q-38 16 -66 16q-41 0 -86 -42l52 -31
q21 26 52 26q15 0 51 -16q36 -15 63 -15q40 0 86 41z" />
    <glyph glyph-name="lamalefhamzaaboveisolatedarabi" unicode="&#xfef7;" horiz-adv-x="557" arabic-form="isolated" 
d="M475 177l-118 475l-87 -28l110 -440q24 -100 -74 -100h-38l-130 520l-88 -28l123 -492h-101l-23 -84h284q84 0 123 50q39 49 19 127zM136 664l-9 34h-79l-5 20q-8 35 16 35q17 0 30 -15l16 28q-27 21 -52 21q-62 0 -47 -69l5 -20h-27l-12 -34h164z" />
    <glyph glyph-name="lamalefhamzaabovefinalarabicX" unicode="&#xfef8;" horiz-adv-x="668" arabic-form="final" 
d="M688 0l-21 84h-68q-100 0 -125 97l-116 466q-71 -19 -88 -23l110 -440q24 -100 -74 -100h-38l-130 520l-88 -28l123 -492h-101l-23 -84h196h88q90 0 128 53q64 -53 153 -53h74zM136 664l-9 34h-79l-5 20q-8 35 16 35q17 0 30 -15l16 28q-27 21 -52 21q-62 0 -47 -69
l5 -20h-27l-12 -34h164z" />
    <glyph glyph-name="lamalefhamzabelowisolatedarabi" unicode="&#xfef9;" horiz-adv-x="557" arabic-form="isolated" 
d="M475 177l-118 475l-87 -28l110 -440q24 -100 -74 -100h-38l-130 520l-88 -28l123 -492h-101l-23 -84h284q84 0 123 50q39 49 19 127zM338 -195l-9 35h-79l-4 19q-9 35 15 35q16 0 31 -15l15 28q-27 21 -52 21q-63 0 -45 -69l4 -19h-29l-12 -35h165z" />
    <glyph glyph-name="lamalefhamzabelowfinalarabicX" unicode="&#xfefa;" horiz-adv-x="668" arabic-form="final" 
d="M688 0l-21 84h-68q-100 0 -125 97l-116 466q-71 -19 -88 -23l110 -440q24 -100 -74 -100h-38l-130 520l-88 -28l123 -492h-101l-23 -84h196h88q90 0 128 53q64 -53 153 -53h74zM338 -195l-9 35h-79l-4 19q-9 35 15 35q16 0 31 -15l15 28q-27 21 -52 21q-63 0 -45 -69
l4 -19h-29l-12 -35h165z" />
    <glyph glyph-name="lamalefisolatedarabic" unicode="&#xfefb;" horiz-adv-x="557" arabic-form="isolated" 
d="M475 177l-118 475l-87 -28l110 -440q24 -100 -74 -100h-38l-130 520l-88 -28l123 -492h-101l-23 -84h284q84 0 123 50q39 49 19 127z" />
    <glyph glyph-name="lamaleffinalarabic" unicode="&#xfefc;" horiz-adv-x="668" arabic-form="final" 
d="M688 0l-21 84h-68q-100 0 -125 97l-116 466q-71 -19 -88 -23l110 -440q24 -100 -74 -100h-38l-130 520l-88 -28l123 -492h-101l-23 -84h196h88q90 0 128 53q64 -53 153 -53h74z" />
    <glyph glyph-name=".notdef" horiz-adv-x="500" 
d="M63 0h375v750h-375v-750zM125 63v625h250v-625h-250z" />
    <glyph glyph-name=".null" 
 />
    <glyph glyph-name="nonmarkingreturn" horiz-adv-x="333" 
 />
    <glyph glyph-name="space" unicode=" " horiz-adv-x="162" 
 />
    <glyph glyph-name="exclam" unicode="!" horiz-adv-x="213" 
d="M3 643h-114l135 -461h74zM159 0l-26 101h-104l26 -101h104z" />
    <glyph glyph-name="quotedbl" unicode="&#x22;" horiz-adv-x="292" 
d="M-25 611q-13 57 -62 57q-47 0 -34 -57q3 -12 39 -99q12 -30 41 -30q23 0 24 24q6 50 -8 105zM101 611q-14 57 -62 57q-46 0 -34 -57q3 -12 39 -99q12 -30 41 -30q23 0 24 24q6 50 -8 105z" />
    <glyph glyph-name="dollar" unicode="$" horiz-adv-x="584" 
d="M486 193q-21 88 -87 134q-50 37 -135 49l-32 5l-50 200q76 -8 133 -51l49 63q-91 68 -195 74l-20 82h-76l21 -84q-85 -7 -123 -58.5t-18 -131.5q20 -78 77.5 -124t139.5 -55l24 -2l51 -204q-96 3 -168 63l-50 -67q101 -82 233 -86l24 -100h76l-25 102q89 9 130 60t21 131
zM171 387q-102 14 -122 91q-22 90 74 101zM387 189q22 -87 -83 -98l-49 196q63 -9 90 -29q31 -22 42 -69z" />
    <glyph glyph-name="quotesingle" unicode="'" 
d="M-45 611q-13 57 -62 57q-47 0 -34 -57q3 -12 39 -99q12 -30 41 -30q23 0 24 24q6 50 -8 105z" />
    <glyph glyph-name="parenleft" unicode="(" horiz-adv-x="307" 
d="M267 -86q-52 42 -67 61q-19 24 -32 77l-107 429q-13 49 -6 76q19 42 37 60l-80 64q-42 -56 -53 -87q-11 -38 6 -107l109 -441q19 -72 48 -108q20 -25 44 -45l53 -42z" />
    <glyph glyph-name="parenright" unicode=")" horiz-adv-x="307" 
d="M209 46l-110 441q-17 70 -48 107q-18 22 -45 44q-2 3 -50 43l-48 -64q53 -43 67 -60q20 -28 32 -76l107 -429q12 -49 5 -77q-23 -44 -37 -61l80 -63q44 60 53 87q11 42 -6 108z" />
    <glyph glyph-name="at" unicode="*" horiz-adv-x="390" 
d="M317 96l-127 61l96 62l-29 34l-91 -66l-30 128h-40l34 -128l-125 66l-10 -34l125 -62l-95 -61l28 -35l92 67l30 -128h40l-34 128l124 -67z" />
    <glyph glyph-name="plus" unicode="+" horiz-adv-x="496" 
d="M407 155l-22 87h-154l-38 155h-88l38 -155h-154l21 -87h155l39 -155h88l-39 155h154z" />
    <glyph glyph-name="hyphen" unicode="-" horiz-adv-x="466" 
d="M367 199l-19 75h-367l19 -75h367z" />
    <glyph glyph-name="period" unicode="." horiz-adv-x="369" 
d="M272 65q-7 28 -31 47.5t-53 19.5q-27 0 -42 -20t-8 -47q8 -28 32 -47.5t51 -19.5q29 0 44 19.5t7 47.5z" />
    <glyph glyph-name="slash" unicode="/" horiz-adv-x="235" 
d="M164 643h-94l-161 -643h93z" />
    <glyph glyph-name="zero" unicode="0" horiz-adv-x="233" 
d="M148 75l-31 124l-108 27l31 -124z" />
    <glyph glyph-name="one" unicode="1" horiz-adv-x="226" 
d="M160 0l-160 643h-94l152 -613z" />
    <glyph glyph-name="two" unicode="2" horiz-adv-x="518" 
d="M311 563l-20 80h-272q-33 0 -57 -12q-47 -26 -30 -92l126 -509l102 -30l-132 529q-9 31 18 34h265z" />
    <glyph glyph-name="three" unicode="3" horiz-adv-x="592" 
d="M406 481l-41 164h-96l39 -158q9 -37 9 -49q-1 -21 -24 -21q-45 0 -70 63l-41 165h-96l39 -158q2 -8 3.5 -16.5t3 -13t2 -8.5t0.5 -6q-2 -26 -23 -26q-47 0 -71 61l-40 167h-94l152 -615l102 -30l-87 346q32 -16 59 -16q60 -2 82 44q41 -44 100 -44q129 0 92 151z" />
    <glyph glyph-name="four" unicode="4" horiz-adv-x="545" 
d="M479 0l-62 84h-171q-49 0 -86 27.5t-49 74.5q-27 109 86 109h100l-20 80h-100q-101 0 -125 95q-23 95 74 95h145l-20 78h-145q-84 0 -123 -47q-41 -47 -22 -126q23 -88 95 -131q-64 -47 -37 -153q21 -86 91 -136q71 -50 157 -50h212z" />
    <glyph glyph-name="five" unicode="5" horiz-adv-x="538" 
d="M417 218q-36 146 -273 284q-171 -129 -133 -284q24 -95 90 -153q73 -65 168 -65q98 0 137 65q35 61 11 153zM322 218q35 -137 -74 -137q-107 0 -142 137q-26 101 62 184q128 -82 154 -184z" />
    <glyph glyph-name="six" unicode="6" horiz-adv-x="518" 
d="M452 0l-135 539q-17 66 -76 92q-30 12 -64 12h-271l20 -80h265q27 -3 36 -34l124 -499z" />
    <glyph glyph-name="seven" unicode="7" horiz-adv-x="666" 
d="M439 643h-102l-39 -503l-291 503h-101l384 -643h85z" />
    <glyph glyph-name="eight" unicode="8" horiz-adv-x="666" 
d="M600 0l-386 643h-85l-63 -643h102l39 504l291 -504h102z" />
    <glyph glyph-name="nine" unicode="9" horiz-adv-x="521" 
d="M347 430q-21 87 -82 147q-69 66 -166 66q-102 0 -135 -71q-26 -59 -2 -153q25 -97 77 -152q69 -71 172 -71q57 0 94 24l55 -220l87 30zM256 419q34 -141 -66 -141q-102 0 -136 141q-36 142 66 142q100 0 136 -142z" />
    <glyph glyph-name="colon" unicode=":" horiz-adv-x="368" 
d="M208 320q-8 28 -31.5 47.5t-52.5 19.5q-27 0 -41.5 -19.5t-7.5 -47.5q7 -27 31 -47t51 -20q29 0 43.5 20t7.5 47zM271 65q-7 28 -30.5 47.5t-52.5 19.5q-27 0 -42 -20t-8 -47q8 -28 32 -47.5t51 -19.5q29 0 43.5 19.5t6.5 47.5z" />
    <glyph glyph-name="less" unicode="&#x3c;" horiz-adv-x="434" 
d="M379 -10l-292 233l176 234h-89l-175 -234l291 -233h89z" />
    <glyph glyph-name="equal" unicode="=" horiz-adv-x="496" 
d="M349 387l-22 88h-396l22 -88h396zM394 208l-22 87h-396l22 -87h396z" />
    <glyph glyph-name="greater" unicode="&#x3e;" horiz-adv-x="402" 
d="M303 223l-292 234h-88l291 -234l-176 -233h89z" />
    <glyph glyph-name="bracketleft" unicode="[" horiz-adv-x="330" 
d="M309 -84l-20 83h-109l-157 628h109l-21 83h-201l197 -794h202z" />
    <glyph glyph-name="backslash" unicode="\" horiz-adv-x="437" 
d="M365 -60l-455 786h-91l456 -786h90z" />
    <glyph glyph-name="bracketright" unicode="]" horiz-adv-x="330" 
d="M262 -84l-198 794h-200l21 -83h109l156 -628h-109l20 -83h201z" />
    <glyph glyph-name="underscore" unicode="_" horiz-adv-x="234" 
d="M293 -98l-10 41h-304l10 -41h304z" />
    <glyph glyph-name="braceleft" unicode="{" horiz-adv-x="383" 
d="M358 -84l-20 84h-37q-35 0 -52 9q-20 14 -33 64l-36 147q-18 67 -85 92q54 27 39 93l-37 148q-11 45 -2 59t49 14h37l-21 84h-66q-131 0 -99 -128l38 -155q9 -37 -2.5 -55t-38.5 -18h-34l21 -82h33q60 0 78 -74l39 -154q32 -128 163 -128h66z" />
    <glyph glyph-name="bar" unicode="|" horiz-adv-x="157" 
d="M60 -65h73l-194 780h-73z" />
    <glyph glyph-name="braceright" unicode="}" horiz-adv-x="383" 
d="M270 272l-21 82h-34q-61 0 -80 73l-39 155q-32 128 -162 128h-65l21 -84h35q38 0 52 -10q20 -12 34 -63l37 -148q15 -66 83 -93q-55 -26 -37 -92l36 -147q12 -46 2.5 -59.5t-51.5 -13.5h-35l20 -84h65q132 0 100 128l-39 154q-18 74 44 74h34z" />
    <glyph glyph-name="nbspace" unicode="&#xa0;" horiz-adv-x="623" 
 />
    <glyph glyph-name="guillemotleft" unicode="&#xab;" horiz-adv-x="455" 
d="M317 369h-68q-43 -89 -19 -185q23 -92 112 -184h68q-83 109 -101 183q-19 74 8 186zM181 369h-67q-44 -89 -20 -185q23 -92 113 -184h67q-82 110 -100 183q-19 73 7 186z" />
    <glyph glyph-name="guillemotright" unicode="&#xbb;" horiz-adv-x="455" 
d="M269 184q-24 94 -115 185h-67q83 -114 101 -186q18 -76 -7 -184h67q43 94 21 185zM134 184q-24 95 -114 185h-66q83 -115 100 -186q18 -77 -8 -184h67q43 94 21 185z" />
    <glyph glyph-name="multiply" unicode="&#xd7;" horiz-adv-x="485" 
d="M420 58l-168 135l101 134l-74 59l-100 -134l-168 134l-43 -59l167 -134l-101 -135l74 -58l100 134l168 -134z" />
    <glyph glyph-name="divide" unicode="&#xf7;" horiz-adv-x="492" 
d="M205 339l-21 83h-88l21 -83h88zM393 200l-20 77h-393l20 -77h393zM276 54l-21 83h-88l21 -83h88z" />
    <glyph glyph-name="commaarabic" unicode="&#x60c;" horiz-adv-x="230" 
d="M169 -1l-62 249l-87 -87l41 -162h108z" />
    <glyph glyph-name="semicolonarabic" unicode="&#x61b;" horiz-adv-x="368" 
d="M204 280l-63 250l-85 -87l41 -163h107zM271 66q-7 29 -32 48.5t-52 19.5q-28 0 -42 -19.5t-7 -48.5q7 -27 31 -46.5t52 -19.5q27 0 42 19.5t8 46.5z" />
    <glyph glyph-name="questionarabic" unicode="&#x61f;" horiz-adv-x="466" 
d="M301 462q-20 79 -85 128q-65 50 -142 50t-119 -48q-41 -48 -21 -128q12 -48 70 -115q50 -49 98 -98q21 -21 35 -78h95q-13 53 -20 66q-12 27 -42 57q-26 25 -76 73q-57 60 -66 95q-10 39 9 65.5t58 26.5q41 0 71.5 -26.5t40.5 -67.5h94zM271 0l-21 82h-83l21 -82h83z" />
    <glyph glyph-name="tatweelarabic" unicode="&#x640;" horiz-adv-x="161" 
d="M173 0l-21 84h-184l20 -84h185z" />
    <glyph glyph-name="maddaabove" unicode="&#x653;" 
d="M202 703l-52 32q-23 -26 -45 -26q-17 0 -55 15q-38 16 -66 16q-41 0 -86 -42l52 -31q21 26 52 26q15 0 51 -16q36 -15 63 -15q40 0 86 41z" />
    <glyph glyph-name="hamzaabove" unicode="&#x654;" 
d="M136 664l-9 34h-79l-5 20q-8 35 16 35q17 0 30 -15l16 28q-27 21 -52 21q-62 0 -47 -69l5 -20h-27l-12 -34h164z" />
    <glyph glyph-name="hamzabelow" unicode="&#x655;" 
d="M338 -195l-9 35h-79l-4 19q-9 35 15 35q16 0 31 -15l15 28q-27 21 -52 21q-63 0 -45 -69l4 -19h-29l-12 -35h165z" />
    <glyph glyph-name="zeroarabic" unicode="&#x660;" horiz-adv-x="233" 
d="M148 75l-31 124l-108 27l31 -124z" />
    <glyph glyph-name="onearabic" unicode="&#x661;" horiz-adv-x="226" 
d="M160 0l-160 643h-94l152 -613z" />
    <glyph glyph-name="twoarabic" unicode="&#x662;" horiz-adv-x="518" 
d="M311 563l-20 80h-272q-33 0 -57 -12q-47 -26 -30 -92l126 -509l102 -30l-132 529q-9 31 18 34h265z" />
    <glyph glyph-name="threearabic" unicode="&#x663;" horiz-adv-x="592" 
d="M406 481l-41 164h-96l39 -158q9 -37 9 -49q-1 -21 -24 -21q-45 0 -70 63l-41 165h-96l39 -158q2 -8 3.5 -16.5t3 -13t2 -8.5t0.5 -6q-2 -26 -23 -26q-47 0 -71 61l-40 167h-94l152 -615l102 -30l-87 346q32 -16 59 -16q60 -2 82 44q41 -44 100 -44q129 0 92 151z" />
    <glyph glyph-name="fourarabic" unicode="&#x664;" horiz-adv-x="545" 
d="M479 0l-62 84h-171q-49 0 -86 27.5t-49 74.5q-27 109 86 109h100l-20 80h-100q-101 0 -125 95q-23 95 74 95h145l-20 78h-145q-84 0 -123 -47q-41 -47 -22 -126q23 -88 95 -131q-64 -47 -37 -153q21 -86 91 -136q71 -50 157 -50h212z" />
    <glyph glyph-name="fivearabic" unicode="&#x665;" horiz-adv-x="538" 
d="M417 218q-36 146 -273 284q-171 -129 -133 -284q24 -95 90 -153q73 -65 168 -65q98 0 137 65q35 61 11 153zM322 218q35 -137 -74 -137q-107 0 -142 137q-26 101 62 184q128 -82 154 -184z" />
    <glyph glyph-name="sixarabic" unicode="&#x666;" horiz-adv-x="518" 
d="M452 0l-135 539q-17 66 -76 92q-30 12 -64 12h-271l20 -80h265q27 -3 36 -34l124 -499z" />
    <glyph glyph-name="sevenarabic" unicode="&#x667;" horiz-adv-x="666" 
d="M439 643h-102l-39 -503l-291 503h-101l384 -643h85z" />
    <glyph glyph-name="eightarabic" unicode="&#x668;" horiz-adv-x="666" 
d="M600 0l-386 643h-85l-63 -643h102l39 504l291 -504h102z" />
    <glyph glyph-name="ninearabic" unicode="&#x669;" horiz-adv-x="521" 
d="M347 430q-21 87 -82 147q-69 66 -166 66q-102 0 -135 -71q-26 -59 -2 -153q25 -97 77 -152q69 -71 172 -71q57 0 94 24l55 -220l87 30zM256 419q34 -141 -66 -141q-102 0 -136 141q-36 142 66 142q100 0 136 -142z" />
    <glyph glyph-name="percentarabic" unicode="&#x66a;" horiz-adv-x="477" 
d="M101 513l-23 91l-80 22l22 -92zM261 668h-68l-144 -668h68zM316 37l-22 91l-81 22l23 -91z" />
    <glyph glyph-name="decimalseparatorarabic" unicode="&#x66b;" horiz-adv-x="230" 
d="M169 -1l-62 249l-87 -87l41 -162h108z" />
    <glyph glyph-name="thousandsseparatorarabic" unicode="&#x66c;" horiz-adv-x="230" 
d="M169 -1l-62 249l-87 -87l41 -162h108z" />
    <glyph glyph-name="asteriskarabic" unicode="&#x66d;" horiz-adv-x="500" 
d="M385 245l-14 20l-133 -20l-73 143h-20l-4 -143l-142 21l-4 -21l140 -93l-18 -139l21 -13l90 94l137 -94l13 15l-86 138z" />
    <glyph glyph-name="superscriptalef" unicode="&#x670;" 
d="M-147 684h54l-58 234h-54z" />
    <glyph glyph-name="extendedarabicindicdigitzero" unicode="&#x6f0;" horiz-adv-x="233" 
d="M148 75l-31 124l-108 27l31 -124z" />
    <glyph glyph-name="extendedarabicindicdigitone" unicode="&#x6f1;" horiz-adv-x="226" 
d="M160 0l-160 643h-94l152 -613z" />
    <glyph glyph-name="extendedarabicindicdigittwo" unicode="&#x6f2;" horiz-adv-x="518" 
d="M311 563l-20 80h-272q-33 0 -57 -12q-47 -26 -30 -92l126 -509l102 -30l-132 529q-9 31 18 34h265z" />
    <glyph glyph-name="extendedarabicindicdigitthree" unicode="&#x6f3;" horiz-adv-x="592" 
d="M406 481l-41 164h-96l39 -158q9 -37 9 -49q-1 -21 -24 -21q-45 0 -70 63l-41 165h-96l39 -158q2 -8 3.5 -16.5t3 -13t2 -8.5t0.5 -6q-2 -26 -23 -26q-47 0 -71 61l-40 167h-94l152 -615l102 -30l-87 346q32 -16 59 -16q60 -2 82 44q41 -44 100 -44q129 0 92 151z" />
    <glyph glyph-name="extendedarabicindicdigitfour" unicode="&#x6f4;" horiz-adv-x="545" 
d="M479 0l-62 84h-171q-49 0 -86 27.5t-49 74.5q-27 109 86 109h100l-20 80h-100q-101 0 -125 95q-23 95 74 95h145l-20 78h-145q-84 0 -123 -47q-41 -47 -22 -126q23 -88 95 -131q-64 -47 -37 -153q21 -86 91 -136q71 -50 157 -50h212z" />
    <glyph glyph-name="extendedarabicindicdigitfive" unicode="&#x6f5;" horiz-adv-x="538" 
d="M417 218q-36 146 -273 284q-171 -129 -133 -284q24 -95 90 -153q73 -65 168 -65q98 0 137 65q35 61 11 153zM322 218q35 -137 -74 -137q-107 0 -142 137q-26 101 62 184q128 -82 154 -184z" />
    <glyph glyph-name="extendedarabicindicdigitsix" unicode="&#x6f6;" horiz-adv-x="518" 
d="M452 0l-135 539q-17 66 -76 92q-30 12 -64 12h-271l20 -80h265q27 -3 36 -34l124 -499z" />
    <glyph glyph-name="extendedarabicindicdigitseven" unicode="&#x6f7;" horiz-adv-x="666" 
d="M439 643h-102l-39 -503l-291 503h-101l384 -643h85z" />
    <glyph glyph-name="extendedarabicindicdigiteight" unicode="&#x6f8;" horiz-adv-x="666" 
d="M600 0l-386 643h-85l-63 -643h102l39 504l291 -504h102z" />
    <glyph glyph-name="extendedarabicindicdigitnine" unicode="&#x6f9;" horiz-adv-x="521" 
d="M347 430q-21 87 -82 147q-69 66 -166 66q-102 0 -135 -71q-26 -59 -2 -153q25 -97 77 -152q69 -71 172 -71q57 0 94 24l55 -220l87 30zM256 419q34 -141 -66 -141q-102 0 -136 141q-36 142 66 142q100 0 136 -142z" />
    <glyph glyph-name="zeronojoin" unicode="&#x200c;" horiz-adv-x="20" 
d="M20 0v722h-20v-722h20z" />
    <glyph glyph-name="zerojoin" unicode="&#x200d;" horiz-adv-x="20" 
d="M71 663l-47 48l47 47l-14 14l-47 -48l-47 48l-14 -14l48 -47l-48 -48l14 -13l37 37v-687h20v687l37 -37z" />
    <glyph glyph-name="lefttoright" unicode="&#x200e;" horiz-adv-x="20" 
d="M134 711l-60 61l-14 -14l36 -36h-96v-722h20v702h78l-38 -38l14 -14z" />
    <glyph glyph-name="righttoleft" unicode="&#x200f;" horiz-adv-x="20" 
d="M20 0v722h-96l36 36l-14 14l-60 -61l60 -61l14 14l-38 38h78v-702h20z" />
    <glyph glyph-name="hyphenminus" unicode="&#x2010;" horiz-adv-x="454" 
d="M-23 192h420l-10 39h-420z" />
    <glyph glyph-name="quotedblleft" unicode="&#x201c;" horiz-adv-x="292" 
d="M22 539q15 -57 62 -57q49 0 34 57q-3 12 -39 99q-12 30 -41 30q-22 0 -24 -24q-6 -50 8 -105zM-104 539q15 -57 62 -57q48 0 34 57q-3 12 -39 99q-12 30 -41 30q-22 0 -24 -24q-6 -50 8 -105z" />
    <glyph glyph-name="quotedblright" unicode="&#x201d;" horiz-adv-x="292" 
d="M-25 611q-13 57 -62 57q-47 0 -34 -57q3 -12 39 -99q12 -30 41 -30q23 0 24 24q6 50 -8 105zM101 611q-14 57 -62 57q-46 0 -34 -57q3 -12 39 -99q12 -30 41 -30q23 0 24 24q6 50 -8 105z" />
    <glyph glyph-name="delete" unicode="&#x2421;" horiz-adv-x="709" 
d="M674 57v31h-127v229h-36v-260h163zM479 57v31h-159v88h143v31h-143v79h153v31h-189v-260h195zM253 189q0 106 -79 124q-13 4 -46 4h-90v-260h95q21 0 41 5q79 19 79 127zM218 189q0 -55 -26 -83q-20 -18 -63 -18h-56v198h55q29 0 44 -5q46 -18 46 -92z" />
    <glyph glyph-name="ornateleftparenthesis" unicode="&#xfd3e;" horiz-adv-x="307" 
d="M267 -86q-52 42 -67 61q-19 24 -32 77l-107 429q-13 49 -6 76q19 42 37 60l-80 64q-42 -56 -53 -87q-11 -38 6 -107l109 -441q19 -72 48 -108q20 -25 44 -45l53 -42z" />
    <glyph glyph-name="ornaterightparenthesis" unicode="&#xfd3f;" horiz-adv-x="307" 
d="M209 46l-110 441q-17 70 -48 107q-18 22 -45 44q-2 3 -50 43l-48 -64q53 -43 67 -60q20 -28 32 -76l107 -429q12 -49 5 -77q-23 -44 -37 -61l80 -63q44 60 53 87q11 42 -6 108z" />
    <glyph glyph-name="zerowidthnobreakspace" unicode="&#xfeff;" 
 />
    <glyph glyph-name="CR" horiz-adv-x="333" 
 />
    <glyph glyph-name="_4" horiz-adv-x="280" 
 />
    <glyph glyph-name="_13" horiz-adv-x="273" 
 />
    <glyph glyph-name="kashidaautoarabic" horiz-adv-x="80" 
d="M100 0v82h-112v-82h112z" />
    <glyph glyph-name="nonbreakingspace" horiz-adv-x="623" 
 />
    <glyph glyph-name="_246" 
 />
  </font>
</defs>
</svg>
